<?xml version="1.0" encoding="UTF-8" standalone="no"?><!DOCTYPE svg PUBLIC "-//W3C//DTD SVG 1.1//EN" "http://www.w3.org/Graphics/SVG/1.1/DTD/svg11.dtd"><svg width="100%" height="100%" viewBox="0 0 940 858" version="1.1" xmlns="http://www.w3.org/2000/svg" xmlns:xlink="http://www.w3.org/1999/xlink" xml:space="preserve" xmlns:serif="http://www.serif.com/" style="fill-rule:evenodd;clip-rule:evenodd;stroke-linejoin:round;stroke-miterlimit:2;"><g><path d="M459.356,797.321c-5.469,2.583 -10.027,3.733 -15.117,3.733c-12.127,0 -17.813,-8.53 -17.813,-21.357c0,-12.284 6.113,-20.608 18.779,-20.608c6.175,0 10.125,1.487 13.294,3.581l-3.342,5.936c-2.279,-1.498 -5.708,-2.572 -9.897,-2.572c-7.26,0 -10.546,5.513 -10.546,13.532c0,9.55 3.47,14.769 10.296,14.769c2.648,0 5.166,-0.543 7.086,-1.443l0,-7.434l-5.589,0l-0.423,-5.827l13.272,0l0,17.689Z" style="fill:#575756;fill-rule:nonzero;"/><path d="M492.118,785.71c0,10.005 -5.057,15.334 -13.793,15.334c-8.823,0 -13.804,-5.274 -13.804,-15.334c0,-8.649 4.797,-15.236 13.804,-15.236c8.866,0 13.793,6.587 13.793,15.236m-8.052,0c0,-7.086 -2.105,-9.55 -5.741,-9.55c-3.668,0 -5.708,2.518 -5.708,9.55c0,6.826 1.856,9.571 5.708,9.571c3.831,0 5.741,-2.572 5.741,-9.571" style="fill:#575756;fill-rule:nonzero;"/><path d="M505.26,774.055c1.324,-1.791 4.482,-3.592 7.781,-3.592c6.913,0 11.872,4.916 11.872,15.236c0,10.136 -5.99,15.355 -12.838,15.355c-4.189,0 -6.641,-1.617 -8.508,-4.145l-1.443,3.538l-4.189,0l0,-41.357l7.868,0l0,10.233l-0.543,4.731Zm0.543,18.242c1.183,1.617 3.234,2.995 5.328,2.995c3.407,0 5.936,-2.518 5.936,-9.593c0,-7.01 -2.225,-9.485 -5.817,-9.485c-1.986,0 -4.124,1.031 -5.448,2.344l0,13.738Z" style="fill:#575756;fill-rule:nonzero;"/><path d="M533.258,800.447l0,-23.614l-3.364,-0.727l0,-5.035l11.156,0l0,29.376l-7.792,0Zm-0.228,-41.367l7.922,0l0,7.13l-7.922,0l0,-7.13Z" style="fill:#575756;fill-rule:nonzero;"/><path d="M554.918,787.858c0,4.677 2.637,7.249 7.564,7.249c3.039,0 5.99,-1.248 8.562,-2.518l1.498,5.524c-2.453,1.313 -6.359,2.941 -11.015,2.941c-9.181,0 -14.52,-5.643 -14.52,-15.355c0,-9.05 4.319,-15.236 13.728,-15.236c8.877,0 12.415,6.598 12.415,13.977l0,3.418l-18.231,0Zm5.448,-11.633c-3.885,0 -5.448,3.538 -5.448,7.01l10.722,0c0,-3.766 -1.194,-7.01 -5.274,-7.01" style="fill:#575756;fill-rule:nonzero;"/><path d="M595.765,777.592c-0.955,-0.293 -2.279,-0.467 -3.657,-0.467c-2.094,0 -3.95,0.901 -5.274,1.986l0,21.335l-7.803,0l0,-29.376l5.469,0c0.293,1.367 0.597,2.648 0.836,3.961l0.239,0c0.89,-2.105 3.538,-4.504 6.999,-4.504c1.574,0 2.713,0.239 3.375,0.423c-0.076,2.225 -0.076,4.428 -0.184,6.641" style="fill:#575756;fill-rule:nonzero;"/><path d="M618.738,800.447l0,-17.45c0,-4.428 -1.682,-6.522 -5.274,-6.522c-2.04,0 -3.787,0.901 -5.155,1.78l0,22.192l-7.857,0l0,-29.376l5.404,0l1.183,3.353c1.682,-1.986 4.916,-3.95 9.311,-3.95c7.434,0 10.353,4.373 10.353,11.807l0,18.166l-7.965,0Z" style="fill:#575756;fill-rule:nonzero;"/><path d="M659.53,785.71c0,10.005 -5.057,15.334 -13.814,15.334c-8.779,0 -13.782,-5.274 -13.782,-15.334c0,-8.649 4.807,-15.236 13.782,-15.236c8.909,0 13.814,6.587 13.814,15.236m-8.041,0c0,-7.086 -2.116,-9.55 -5.773,-9.55c-3.646,0 -5.665,2.518 -5.665,9.55c0,6.826 1.845,9.571 5.665,9.571c3.852,0 5.773,-2.572 5.773,-9.571" style="fill:#575756;fill-rule:nonzero;"/><path d="M697.631,773.349c-0.499,-1.693 -0.738,-3.18 -0.738,-5.393l0,-8.877l7.803,0l0,41.367l-6.359,0l-0.901,-3.234c-1.183,1.791 -4.026,3.831 -7.781,3.831c-6.674,0 -12.002,-4.786 -12.002,-15.279c0,-9.723 5.502,-15.29 12.664,-15.29c3.169,0 5.686,1.063 7.314,2.876m-0.738,4.438c-1.183,-0.727 -3.039,-1.443 -5.328,-1.443c-3.722,0 -6.066,2.528 -6.066,9.365c0,6.999 2.225,9.636 5.958,9.636c1.953,0 3.961,-0.944 5.437,-2.518l0,-15.041Z" style="fill:#575756;fill-rule:nonzero;"/><path d="M718.565,787.858c0,4.677 2.626,7.249 7.531,7.249c3.071,0 6.012,-1.248 8.595,-2.518l1.498,5.524c-2.453,1.313 -6.359,2.941 -11.036,2.941c-9.159,0 -14.509,-5.643 -14.509,-15.355c0,-9.05 4.319,-15.236 13.738,-15.236c8.877,0 12.415,6.598 12.415,13.977l0,3.418l-18.231,0Zm5.448,-11.633c-3.896,0 -5.448,3.538 -5.448,7.01l10.722,0c0,-3.766 -1.194,-7.01 -5.274,-7.01" style="fill:#575756;fill-rule:nonzero;"/><path d="M772.488,801.054c-11.405,0 -17.461,-7.672 -17.461,-21.161c0,-12.425 6.001,-20.825 17.461,-20.825c5.513,0 10.494,1.205 13.782,3.429l-2.995,6.229c-2.094,-1.563 -5.762,-2.767 -9.962,-2.767c-6.717,0 -10.071,5.003 -10.071,13.858c0,9.365 3.353,14.325 9.951,14.325c3.961,0 7.922,-1.66 10.678,-3.7l2.518,6.305c-4.015,2.746 -8.573,4.308 -13.901,4.308" style="fill:#575756;fill-rule:nonzero;"/><path d="M791.804,800.447l0,-41.367l7.846,0l0,10.841c0,2.051 -0.651,4.091 -0.77,4.558c1.66,-2.04 4.135,-4.004 8.323,-4.004c8.475,0 10.852,4.373 10.852,11.807l0,18.166l-7.965,0l0,-17.45c0,-0.77 -0.119,-1.378 -0.423,-1.791c-0.239,-3.299 -1.921,-4.731 -4.851,-4.731c-2.04,0 -3.776,0.901 -5.166,1.78l0,22.192l-7.846,0Z" style="fill:#575756;fill-rule:nonzero;"/><path d="M826.834,800.447l0,-23.614l-3.364,-0.727l0,-5.035l11.145,0l0,29.376l-7.781,0Zm-0.25,-41.367l7.922,0l0,7.13l-7.922,0l0,-7.13Z" style="fill:#575756;fill-rule:nonzero;"/><path d="M841.777,792.655l0,-33.576l7.727,0l0,33.142c0,2.474 1.487,2.843 4.731,2.843l0,5.502c0,0 -2.279,0.477 -4.308,0.477c-5.99,0 -8.15,-3.18 -8.15,-8.389" style="fill:#575756;fill-rule:nonzero;"/><path d="M866.129,787.858c0,4.677 2.626,7.249 7.531,7.249c3.071,0 6.012,-1.248 8.584,-2.518l1.498,5.524c-2.463,1.313 -6.348,2.941 -11.015,2.941c-9.192,0 -14.52,-5.643 -14.52,-15.355c0,-9.05 4.319,-15.236 13.738,-15.236c8.877,0 12.404,6.598 12.404,13.977l0,3.418l-18.22,0Zm5.448,-11.633c-3.907,0 -5.448,3.538 -5.448,7.01l10.722,0c0,-3.766 -1.205,-7.01 -5.274,-7.01" style="fill:#575756;fill-rule:nonzero;"/><path d="M939.846,0l-939.846,0l0,14.596l0.014,828.054l0,14.596l939.842,0l0,-14.596l-0.011,-828.054l0,-14.596Zm-925.241,14.596l365.757,0l0.029,828.054l-365.771,0l-0.015,-828.054Zm910.656,828.054l-530.266,0l-0.029,-828.054l530.273,0l0.022,828.054Z" style="fill:#575756;fill-rule:nonzero;"/><path d="M208.942,128.128c0.823,-0.673 2.542,-2.16 1.16,-4.959c-0.675,-1.324 -2.424,-1.443 -1.66,-1.606c9.36,-2.203 14.356,-15.855 14.062,-21.085c4.804,4.438 15.604,5.708 23.421,-0.955c5.069,-4.862 7.508,-17.656 -1.146,-24.059c-4.422,-3.266 -12.254,-3.559 -17.161,0.228c-1.558,-2.594 -4.246,-4.46 -7.142,-4.482c-0.043,-0.912 0.132,-7.065 -3.526,-11.08c-4.673,-5.079 -17.823,-5.459 -22.598,0.109c-9.448,-2.366 -21.717,1.997 -21.026,16.777c-6.641,-2.615 -10.433,-2.659 -13.945,-2.333c-3.305,0.304 -7.698,3.256 -9.227,5.274c-0.704,0.912 -1.483,2.17 -2.056,3.277c-1.073,2.116 -1.91,4.916 -1.602,8.02c0.485,5.263 3.071,9.702 6.906,11.796c5.26,2.887 11.945,2.496 14.326,2.116c1.836,-0.391 3.791,-1.074 5.877,-3.245c0.616,-0.619 1.058,-1.617 1.954,-1.628c-0.03,1.335 -0.5,8.432 7.405,11.796c0.029,0.336 0.147,0.662 0.22,1.161c2.512,9.767 9.08,8.562 9.183,9.246c-2.909,1.758 -1.676,4.319 -0.999,5.632c4.453,-1.356 7.744,-1.552 8.787,-1.552c1.043,0 4.334,0.195 8.787,1.552" style="fill:#575756;fill-rule:nonzero;"/><path d="M231.139,157.591c-0.029,-9.788 6.583,-17.341 6.671,-17.45c0.705,-0.803 0.793,-1.574 0.735,-2.094c-0.132,-0.901 -0.823,-1.519 -0.97,-1.53c-1.895,-1.281 -6.127,-3.863 -6.127,-3.863l-0.337,-0.315l-0.367,0c-0.456,0 -0.808,0.282 -1.381,0.727c-1.175,0.89 -3.35,2.583 -7.156,2.583c-0.676,0 -1.366,-0.076 -2.101,-0.163c-1.984,-0.282 -5.32,-1.986 -5.32,-1.986c-1.086,-0.553 -2.438,-1.161 -2.997,-1.411l-0.234,-0.087c-5.466,-2.257 -10.094,-2.453 -11.402,-2.453c-1.294,0 -5.936,0.195 -11.402,2.453l-0.25,0.087c-0.279,0.141 -0.779,0.369 -1.366,0.64l-3.321,1.563c-1.117,0.488 -2.543,1.053 -3.63,1.194c-0.719,0.087 -1.396,0.163 -2.101,0.163c-3.791,0 -5.965,-1.693 -7.156,-2.583c-0.573,-0.445 -0.94,-0.727 -1.38,-0.727l-0.323,0.043l-0.206,0.141c-0.014,0 -4.334,2.67 -6.127,3.907c-0.294,0.13 -0.984,0.705 -1.117,1.628c-0.059,0.51 0,1.281 0.75,2.084c0.264,0.326 6.671,7.759 6.655,17.591c0.162,1.118 0.647,7.021 -4.364,15.692c-0.235,0.445 -5.774,10.548 0.279,19.414c0.029,0.087 4.54,8.323 17.765,8.323c1.087,0 10.843,0.184 14.193,6.424c0.147,0.25 1.719,2.735 2.351,3.972l0.75,1.498l0.749,-1.498c0.633,-1.205 2.175,-3.69 2.41,-4.026c3.305,-6.186 13.062,-6.37 14.15,-6.37c13.018,0 17.676,-8.204 17.676,-8.204c6.201,-9.072 0.396,-19.468 0.367,-19.533c-5.024,-8.671 -4.539,-14.574 -4.364,-15.833m-5.113,-0.098l-17.058,12.219l6.523,19.284l-16.368,-12.415l-16.354,12.415l6.51,-19.284l-17.044,-12.219l-0.06,-0.011l21.041,0l5.907,-19.523l5.907,19.523l21.026,0l-0.029,0.011Z" style="fill:#575756;fill-rule:nonzero;"/><path d="M345.218,238.622c-2.131,-2.583 -7.803,-1.302 -7.803,-1.302c3.042,-9.072 -5.334,-11.481 -5.334,-11.481c-2.997,-0.792 -4.966,-0.228 -6.259,0.651c0,0 -0.043,0.033 -0.088,0.054c-0.015,0.033 -0.044,0.033 -0.044,0.065c-0.234,0.163 -0.425,0.293 -0.602,0.477c-0.749,0.803 -1.22,1.867 -1.22,3.028c0,2.398 1.954,4.352 4.365,4.352c0.926,0 1.793,-0.293 2.497,-0.781c0.867,-0.608 1.5,-1.541 1.734,-2.583c1.175,0.738 1.602,2.029 1.602,2.029c2.44,7.727 -6.244,10.505 -6.244,10.505c-19.205,5.762 -30.944,-4.145 -30.944,-4.145l3.365,-1.791c1.16,-0.51 2.204,-0.662 3.041,-0.662c-0.043,0.152 -0.073,0.369 -0.073,0.564c0,2.062 1.719,3.776 3.82,3.776c2.087,0 3.806,-1.715 3.806,-3.776c-0.029,-1.563 -0.779,-2.322 -0.779,-2.322c-2.233,-3.397 -9.991,-1.15 -9.991,-1.15c2.586,-6.381 0.279,-10.928 0.279,-10.928c-3.584,-7.347 -12.048,-5.057 -12.048,-5.057c-2.939,0.89 -3.556,3.516 -3.556,3.516c-1.146,5.817 3.673,6.316 3.673,6.316c3.482,0.163 3.512,-2.648 3.512,-2.648c0.441,-2.702 -3.394,-2.832 -3.394,-2.832c3.233,-5.708 13.444,3.635 6.774,11.85c-0.69,0.846 -1.337,0.282 -1.337,0.282c-11.946,-5.903 -17.882,-9.767 -20.79,-11.97c-0.28,-3.256 -3.13,-4.916 -2.586,-5.762c0.47,-0.195 2.16,0.64 3.099,-0.77c0.353,-0.51 1.132,-5.665 1.779,-9.311c10.564,4.829 19.585,3.364 21.408,2.778c0.926,-0.38 1.676,-1.042 1.69,-2.442c0.177,-4.026 -10.27,-27.705 -10.549,-36.072c4.937,2.442 7.978,-5.155 8.859,-7.488c6.626,3.028 8.904,64.504 14.017,66.566c2.542,1.053 3.541,-3.136 3.791,-3.918c8.184,-27.401 8.479,-54.086 7.935,-63.039c-0.824,-14.031 -1.954,-26.565 -5.334,-38.112c-2.072,-7.097 -6.098,-21.606 -15.473,-23.581c-4.393,-0.922 -7.714,3.158 -7.64,6.848c0.073,3.18 2.277,4.721 1.292,7.846c-1.175,2.04 -2.351,4.276 -2.924,6.555c-0.559,2.29 1.469,3.212 0.807,5.654c-2.968,-0.456 -4.436,2.149 -9.109,0.955c3.042,-1.411 3.085,-10.081 -0.647,-11.557c-0.558,-0.228 -1.19,-0.315 -1.292,-0.814c0,0 1.205,-1.281 1.807,-2.528c2.145,-4.373 2.13,-8.237 0.426,-11.167c1.542,0.13 3.144,-2.702 3.364,-4.948l0.029,0.011l0,-0.206c0.044,-0.586 -0.059,-2.572 0.838,-4.406c0.279,-0.619 0,-1.302 -0.528,-1.574c-0.53,-0.25 -1.22,-0.022 -1.528,0.586c-0.926,1.942 -3.116,0.868 -2.19,-1.085c0.279,-0.619 0,-1.291 -0.528,-1.552c-0.514,-0.239 -1.22,-0.065 -1.514,0.575c-0.881,1.867 -3.012,0.814 -2.13,-1.053c0.265,-0.597 0,-1.302 -0.514,-1.552c-0.499,-0.239 -1.22,-0.043 -1.528,0.586c-0.912,1.91 -3.13,0.857 -2.204,-1.053c0.279,-0.651 0,-1.324 -0.514,-1.595c-0.528,-0.217 -1.22,-0.022 -1.514,0.597c-0.984,2.018 -1.66,2.876 -2.688,3.679c-2.072,0.369 -1.528,2.767 -1.278,4.384c-3.88,-0.857 -6.803,2.094 -6.92,4.764l-0.426,0c-3.218,0.065 -6.275,1.725 -6.039,4.677c0.117,1.693 2.087,3.766 2.821,3.798c0.353,-0.119 -0.162,-1.78 1.499,-1.888c1.513,-0.087 3.791,1.215 4.055,2.67c0.337,1.639 -1.015,5.589 4.217,6.186c0,0 -0.044,0.803 -0.103,1.66c-1.881,-0.119 -2.366,-0.239 -4.232,0.054c-3.305,0.532 -7.846,2.398 -8.947,5.676c-0.22,0.543 -0.309,1.682 -0.22,2.474c0.073,0.684 0.69,1.519 0.616,2.344c-0.073,0.391 -0.764,1.215 -1.043,1.476c-1.366,1.443 -3.923,2.821 -6.186,2.941c-2.498,0.119 -4.938,-1.498 -5.922,-2.832c-3.321,-4.482 0.984,-12.208 0.912,-15.106c-0.191,-7.672 -9.874,-3.104 -13.723,-1.096c-4.57,2.409 -8.229,6.272 -11.299,10.071c-1.676,2.094 -3.571,4.721 -4.511,6.934c-0.162,0.412 -0.544,0.477 -0.941,0.477c1.97,0.879 5.437,2.17 8.169,2.203c0,0 5.363,0.716 9.198,-2.474c0,0 0.544,-0.477 1.323,-0.477c0.558,0 1.043,0.228 1.469,0.629c0.029,0.054 0.528,0.445 1.101,0.912c0.339,0.282 0.764,0.597 1.206,0.955c0.234,0.184 0.455,0.369 0.704,0.553c0.647,0.499 1.323,1.031 2.028,1.574c0.117,0.109 0.25,0.195 0.367,0.293c0.765,0.575 1.514,1.15 2.175,1.649c0.793,0.597 1.543,1.161 1.984,1.454l0.029,0.033c0.088,0.054 0.28,0.25 0.339,0.543c0.014,0.271 -0.118,0.629 -0.368,0.955c-0.029,0.011 -0.425,0.456 -1.043,1.237c-1.278,1.628 -3.453,4.818 -5.098,8.725c1.807,3.158 4.849,6.913 9.197,6.967c3.482,0.022 4.922,-1.715 5.423,-3.961c0.073,0.065 0.25,0.293 0.279,0.293c0.425,-0.358 2.351,10.027 4.878,12.849c-2.38,1.096 -6.039,4.829 -4.055,15.084c-1.954,-1.552 -5.554,-4.286 -7.273,-6.066c-1.029,-2.127 -3.056,-7.141 -8.861,-7.629c0.853,2.594 2.073,5.48 3.938,8.703c0.029,0.087 3.57,6.598 2.469,13.988c2.424,-2.485 2.056,-9.333 2.056,-9.333c0.089,-0.087 0.426,-0.174 0.544,-0.217c0.485,-0.043 2.925,4.71 7.126,5.719c5.48,9.354 11.652,15.301 17.603,19.067c-0.103,2.279 0.176,7.683 -1.294,7.683c-4.687,1.031 -9.007,-2.127 -13.135,-1.91c-0.353,-0.174 -0.721,-0.336 -0.721,-0.336c-17.779,-8.562 -41.199,9.81 -45.108,13.38c-2.056,1.899 -4.437,-0.705 -4.437,-0.705c-1.396,-1.758 -3.247,-2.55 -5.054,-2.344c-1.779,-0.206 -3.63,0.586 -5.026,2.344c0,0 -2.395,2.604 -4.451,0.705c-3.689,-3.386 -24.934,-19.816 -42.288,-14.216c-0.043,-0.944 -2.38,-1.432 -3.041,-1.682c-1.381,-0.391 -2.586,-1.465 -3.453,-1.91c-1.881,-0.933 -4.952,-0.347 -7.111,-0.608c-0.838,-0.119 -2.013,-0.564 -2.748,-1.02c-2.792,-1.704 -5.951,-3.787 -7.729,-6.305c-0.279,-0.412 -0.97,-1.346 -1.117,-1.508c-0.852,-1.085 -1.294,-1.899 -1.939,-3.679c-0.955,-3.418 0.528,-7.108 1.028,-10.581c0.368,-2.561 0.28,-2.724 0.514,-5.491c11.02,-3.787 15.516,-12.046 18.088,-16.451c0.25,-0.347 0.94,-1.747 0.94,-1.747c0.485,0.065 0.97,0.098 1.499,0.13c4.408,0.022 7.376,-2.431 12.195,-1.845c0,0.25 0.647,2.279 3.776,3.57c0.088,3.169 0.323,5.784 1.528,8.215c0.265,0.434 0.588,0.792 0.823,1.15c2.072,-5.068 2.615,-9.04 2.674,-11.416c-0.147,-0.206 -0.279,-0.499 -0.367,-0.955c-1.043,-5.361 -3.541,-6.848 -5.891,-8.204c-1.161,-0.629 -2.455,-0.814 -3.556,-1.628c-1.719,-1.172 -3.527,-2.442 -4.673,-4.645c0,0 0.573,-0.521 1.161,-1.291c3.085,-3.212 4.628,-7.944 5.745,-13.152c2.366,-3.212 8.904,-1.964 11.387,-1.508c0.647,0.087 1.734,0.326 2.233,0.716c0.705,0.488 0.867,1.606 1.837,2.018c1.043,0.423 2.204,0.119 3.467,0c0.456,0.521 0.69,1.248 1.029,1.91c0,0 0.337,0.597 0.984,1.27c3.071,-0.054 7.17,-1.66 8.889,-2.539c-0.205,-0.13 -0.382,-0.26 -0.47,-0.412c-1.381,-1.747 -3.438,-3.668 -5.363,-3.983c-2.438,-0.391 -2.953,-2.583 -5.289,-3.049c-0.588,-0.152 -2.66,-0.477 -3.35,-0.206c-5.172,0.673 -8.816,-1.291 -13.635,-1.649c-4.584,-0.304 -4.731,2.821 -6.406,5.404c-0.617,0.977 -1.352,2.116 -2.116,2.843c-1.263,1.215 -2.733,1.259 -4.276,2.442l-0.69,-1.91c-0.426,-1.595 -1.029,-3.234 -2.058,-4.797c-2.498,-3.907 -5.334,-6.934 -10.873,-8.215c-1.058,-0.434 -1.22,-0.499 -1.925,-1.053c-0.896,-0.695 -0.265,-1.53 0,-1.617c1.572,-0.912 4.305,-0.586 6.098,-1.411c4.408,-2.062 2.851,-5.806 1.117,-6.11c-2.218,-0.412 -6.23,-1.476 -7.023,-1.942c-1.072,-0.662 -2.924,-4.026 -4.673,-4.862c-1.939,-0.521 -1.278,-3.69 -3.056,-4.384c-0.764,-0.13 -1.91,0.271 -3.159,0.879c-0.074,-0.651 -0.558,-4.254 -2.527,-5.415c-1.483,-0.857 -2.027,0.456 -1.953,1.324c0.073,0.76 2.174,1.823 2.556,5.209c-0.353,0.239 -0.704,0.434 -1.057,0.695c-0.294,-1.411 -0.912,-3.57 -2.366,-4.438c-1.485,-0.846 -2.013,0.467 -1.94,1.324c0.06,0.738 1.911,1.693 2.484,4.558c-0.442,0.369 -0.853,0.727 -1.264,1.118c-2.968,-0.825 -3.761,-2.843 -4.51,-2.973c-0.824,-0.195 -2.19,0.25 -1.499,1.812c0.719,1.552 2.953,2.409 4.305,2.821c-0.309,0.315 -0.559,0.64 -0.824,0.966c-3.438,-0.695 -4.276,-2.919 -5.04,-3.104c-0.852,-0.163 -2.218,0.271 -1.513,1.812c0.998,2.192 4.892,3.028 5.26,3.093c-0.559,0.944 -0.926,1.801 -0.779,2.398c-2.674,-0.304 -7.435,1.129 -6.523,4.297c0.881,0.629 4.04,-1.942 6.95,-0.521c1.91,2.984 4.995,3.114 5.686,3.657c1.072,0.857 1.249,2.387 1.734,3.776c0.866,2.572 2.659,4.645 4.157,6.924c1.646,2.496 3.365,5.111 5.099,7.303c0.205,0.586 0.382,1.215 0.293,2.149c-1.969,3.114 -7.86,6.772 -10.27,9.029c-2.44,2.29 -25.463,19.826 -28.372,27.466c-0.632,1.704 -0.999,3.907 -0.912,6.186c-1.41,0.749 -4.496,1.964 -5.465,0.586c-1.779,-2.463 1.69,-4.33 0.926,-6.728c-0.353,-0.912 -1.69,-1.53 -2.543,-0.912c-5.73,4.102 -2.777,11.384 0.853,13.044c3.982,1.649 4.555,-2.637 7.655,-0.89c0.735,0.412 8.037,6.934 6.817,12.1c-0.073,0.271 -0.353,0.998 -0.499,1.205c-1.602,1.986 -4.276,3.527 -6.098,5.393c-3.806,2.409 3.6,17.558 2.997,25.339c-0.441,2.952 2.454,2.615 4.217,7.238c-1.807,0.054 -3.57,0.499 -4.467,1.856c0,0 -0.764,0.76 -0.764,2.322c0,2.062 1.69,3.776 3.791,3.776c2.101,0 3.806,-1.715 3.806,-3.776c0,-0.195 -0.015,-0.412 -0.044,-0.564c0.823,0 1.896,0.152 3.042,0.662l3.35,1.791c0,0 -11.74,9.908 -30.915,4.145c0,0 -8.698,-2.778 -6.273,-10.505c0,0 0.441,-1.291 1.616,-2.029c0.235,1.042 0.867,1.975 1.719,2.583c0.721,0.488 1.572,0.781 2.513,0.781c2.395,0 4.334,-1.953 4.334,-4.352c0,-1.161 -0.441,-2.225 -1.19,-3.028c-0.191,-0.184 -0.382,-0.315 -0.602,-0.477c0,-0.033 -0.029,-0.033 -0.029,-0.033c-0.059,-0.054 -0.088,-0.076 -0.088,-0.076c-1.323,-0.89 -3.277,-1.454 -6.289,-0.662c0,0 -8.375,2.409 -5.334,11.481c0,0 -5.657,-1.281 -7.787,1.302c0,0 -0.735,0.825 -0.676,2.149l0,0.087c0.059,0.543 0.206,1.15 0.602,1.856c0.602,0.836 1.572,1.411 2.704,1.411c1.028,0 1.924,-0.477 2.542,-1.226c0,-0.022 0.029,-0.022 0.029,-0.022c0.235,-0.293 0.926,-0.695 1.939,0.358c12.725,13.272 33.472,7.792 44.976,-1.085c0,0 6.377,-6.413 13.474,-10.353c2.777,1.183 5.716,2.084 8.566,3.114c-0.206,4.124 0.646,10.038 5.26,16.896c0,0 -3.247,6.012 -8.728,2.702c0,0 -4.04,-3.114 -0.602,-6.858c0,0 2.307,-1.932 3.291,0.467c-1.175,0.076 -2.116,1.031 -2.116,2.235c0,1.248 0.97,2.214 2.204,2.214c1.22,0 2.161,-0.922 2.219,-2.084c0.117,-0.901 0.162,-3.201 -1.822,-4.883c0,0 -1.734,-1.888 -5.04,-1.356c-4.819,0.749 -7.553,10.841 1.984,15.03c0,0 7.493,3.407 11.358,-2.181c0,0 -0.059,-0.803 1.381,0.586c7.934,7.694 25.639,5.459 32.677,0.228c0,0 1.778,-1.139 3.732,-2.04c0.088,2.952 2.498,5.372 5.51,5.372c3.042,0 5.511,-2.496 5.511,-5.534c0,-2.724 -1.954,-4.97 -4.556,-5.426c-0.117,-0.043 -3.629,-1.042 -8.772,2.073c0,0 -5.437,3.407 -5.113,2.876c1.822,-2.865 2.954,-6.761 3.747,-10.895c7.714,0.846 15.648,1.422 23.847,1.595c-0.088,2.387 -0.426,5.296 -1.337,7.52c0,0 -2.909,1.215 -2.968,3.256c0,0 -0.323,1.498 2.247,3.549c0,0 1.881,2.094 2.424,3.711c0,0 0.148,2.225 3.233,2.225c0.235,0 0.426,-0.011 0.588,-0.054c0.205,0.043 0.396,0.054 0.602,0.054c3.085,0 3.247,-2.225 3.247,-2.225c0.544,-1.617 2.41,-3.711 2.41,-3.711c2.571,-2.051 2.263,-3.549 2.263,-3.549c-0.059,-2.04 -2.983,-3.256 -2.983,-3.256c-0.91,-2.225 -1.249,-5.133 -1.337,-7.52c8.214,-0.174 16.148,-0.727 23.862,-1.574c0.778,4.145 1.91,8.009 3.746,10.874c0.323,0.532 -5.098,-2.876 -5.098,-2.876c-5.143,-3.114 -8.699,-2.116 -8.816,-2.073c-2.586,0.456 -4.525,2.702 -4.525,5.426c0,3.039 2.468,5.534 5.495,5.534c3.011,0 5.436,-2.42 5.51,-5.372c1.954,0.901 3.747,2.04 3.747,2.04c7.008,5.231 24.743,7.466 32.677,-0.228c1.44,-1.389 1.381,-0.586 1.381,-0.586c3.864,5.589 11.358,2.181 11.358,2.181c9.521,-4.189 6.788,-14.281 1.984,-15.03c-3.307,-0.532 -5.069,1.356 -5.069,1.356c-1.954,1.682 -1.925,3.983 -1.808,4.883c0.059,1.161 1.029,2.084 2.204,2.084c1.234,0 2.233,-0.966 2.233,-2.214c0,-1.205 -0.955,-2.16 -2.116,-2.235c0.985,-2.398 3.291,-0.467 3.291,-0.467c3.439,3.744 -0.616,6.858 -0.616,6.858c-5.481,3.31 -8.713,-2.702 -8.713,-2.702c4.584,-6.848 5.451,-12.74 5.26,-16.875c2.865,-1.02 5.819,-1.921 8.596,-3.125c7.096,3.95 13.443,10.342 13.443,10.342c11.49,8.877 32.237,14.357 44.962,1.085c1.029,-1.053 1.719,-0.651 1.939,-0.358c0,0 0.029,0 0.029,0.022c0.617,0.749 1.528,1.226 2.557,1.226c1.117,0 2.087,-0.575 2.703,-1.411c0.382,-0.705 0.544,-1.313 0.602,-1.856l0,-0.087c0.06,-1.324 -0.675,-2.149 -0.675,-2.149m-237.426,-3.993c0,0 -0.632,0.564 -1.323,-0.282c-6.7,-8.215 3.527,-17.558 6.774,-11.85c0,0 -3.849,0.13 -3.424,2.832c0,0 0.074,2.811 3.527,2.648c0,0 4.833,-0.499 3.687,-6.316c0,0 -0.632,-2.626 -3.584,-3.516c0,0 -8.434,-2.29 -12.02,5.057c0,0 -0.749,1.747 -0.852,4.417c-0.984,-0.792 -2.087,-1.411 -3.291,-1.595c-1.572,-1.66 -4.334,-15.149 -2.572,-22.073c12.916,-2.702 16.897,-13.37 17.5,-16.397c2.601,0.868 4.143,3.874 4.262,5.155c0.205,1.747 -0.602,3.559 0.425,4.981c1.514,2.105 4.849,4.015 6.906,5.393c0.69,0.456 10.168,7.77 11.387,8.02c1.352,0.282 2.175,-0.716 3.35,-0.51c0.426,0.087 0.705,0.38 1.029,0.651c0,0 0.676,0.673 1.646,1.356c-2.484,1.649 -5.716,4.004 -10.007,7.803c0,0 -3.276,4.254 -23.421,14.227m31.722,9.181c0,0 -0.823,3.549 -1.454,4.308c0,0 -2.837,-5.068 -3.071,-11.666c2.145,0.695 4.26,1.443 6.45,2.062c-0.705,1.66 -1.426,3.299 -1.925,5.296m25.287,12.056c0,0 -13.474,5.285 -22.76,-4.265c0,0 0.661,-5.969 3.173,-12.208c7.508,1.921 15.325,3.364 23.406,4.406c-0.544,5.122 -1.674,11.742 -3.82,12.067m-13.327,-26.229c2.675,-2.496 6.084,-4.221 10.432,-4.297c0,0 6.025,-0.065 7.112,7.466c-6.553,-0.922 -12.489,-1.997 -17.544,-3.169m13.444,-8.54c-0.735,0.163 -9.58,0.749 -16.912,7.683c-4.055,-1.009 -7.699,-2.029 -10.564,-2.941c0.602,-1.118 1.19,-2.257 2.072,-3.364c0,0 11.431,-13.869 31.943,-6.066c0.397,0.13 -0.896,3.44 -6.538,4.688m9.389,12.447c0.867,-8.182 1.469,-15.073 4.437,-15.052c0,0 2.13,0.076 3.6,2.073c2.557,3.559 9.492,7.835 12.665,14.314c-7.405,-0.195 -14.413,-0.619 -20.702,-1.335m32.443,1.335c3.173,-6.479 10.109,-10.754 12.679,-14.314c1.455,-1.997 3.601,-2.073 3.601,-2.073c2.968,-0.022 3.57,6.88 4.422,15.052c-6.289,0.716 -13.283,1.161 -20.702,1.335m23.553,-18.47c20.511,-7.803 31.927,6.066 31.927,6.066c0.896,1.118 1.499,2.268 2.102,3.407c-2.866,0.901 -6.509,1.899 -10.55,2.919c-7.347,-6.956 -16.206,-7.542 -16.927,-7.705c-5.642,-1.248 -6.964,-4.558 -6.552,-4.688m9.565,8.931c4.364,0.076 7.773,1.801 10.447,4.319c-5.069,1.161 -11.005,2.235 -17.574,3.147c1.103,-7.531 7.126,-7.466 7.126,-7.466m-2.894,30.526c-2.145,-0.326 -3.277,-6.924 -3.821,-12.056c8.081,-1.042 15.898,-2.485 23.406,-4.395c2.512,6.218 3.159,12.187 3.159,12.187c-9.271,9.55 -22.744,4.265 -22.744,4.265m26.741,-7.748c-0.632,-0.76 -1.485,-4.308 -1.485,-4.308c-0.484,-1.975 -1.205,-3.625 -1.895,-5.274c2.189,-0.619 4.29,-1.346 6.435,-2.04c-0.234,6.565 -3.056,11.622 -3.056,11.622" style="fill:#575756;fill-rule:nonzero;"/><path d="M475.895,108.204l-1.063,-43.288l-0.304,0c-0.912,5.469 -1.823,9.419 -2.507,12.393l-7.292,30.895l-14.65,0l-6.978,-30.895c-0.695,-2.973 -1.606,-6.924 -2.583,-12.393l-0.315,0l-0.673,43.288l-9.125,0l1.983,-51.264l17.094,0c0,0 5.61,25.828 8.562,42.377l0.239,0c3.407,-16.473 10.092,-42.377 10.092,-42.377l16.788,0l1.975,51.264l-11.243,0Z" style="fill:#575756;fill-rule:nonzero;"/><path d="M498.749,108.204l0,-30.081l-4.319,-0.912l0,-6.207l14.194,0l0,37.2l-9.875,0Zm-0.315,-52.393l10.027,0l0,9.029l-10.027,0l0,-9.029Z" style="fill:#575756;fill-rule:nonzero;"/><path d="M540.735,108.204l0,-22.094c0,-5.621 -2.127,-8.28 -6.685,-8.28c-2.583,0 -4.775,1.139 -6.522,2.279l0,28.096l-9.951,0l0,-37.2l6.837,0l1.508,4.243c2.138,-2.518 6.229,-5.014 11.774,-5.014c9.419,0 13.131,5.545 13.131,14.965l0,23.006l-10.092,0Z" style="fill:#575756;fill-rule:nonzero;"/><path d="M561.994,108.204l0,-30.081l-4.319,-0.912l0,-6.207l14.194,0l0,37.2l-9.875,0Zm-0.304,-52.393l10.016,0l0,9.029l-10.016,0l0,-9.029Z" style="fill:#575756;fill-rule:nonzero;"/><path d="M589.481,80.792c0,5.773 16.104,4.026 16.104,16.169c0,6.761 -5.014,11.991 -14.661,11.991c-4.482,0 -8.66,-1.27 -11.167,-2.735l2.051,-6.902c1.747,1.215 5.393,2.583 8.823,2.583c3.256,0 5.459,-1.823 5.459,-4.091c0,-6.685 -15.876,-4.482 -15.876,-17.168c0,-5.459 4.189,-10.396 14.205,-10.396c3.874,0 7.889,0.76 10.472,1.801l-1.367,7.227c-2.496,-1.139 -5.686,-1.91 -8.953,-1.91c-3.418,0 -5.09,1.291 -5.09,3.429" style="fill:#575756;fill-rule:nonzero;"/><path d="M627.148,108.964c-6.62,0 -10.939,-3.114 -10.939,-12.447l0,-18.459l-5.545,0l0,-7.065l5.545,0l0,-6.446l9.788,-3.212l0,9.658l9.951,0l0,7.065l-9.951,0l0,18.22c0,2.594 1.291,4.265 3.95,4.265c2.062,0 4.178,-0.619 5.708,-1.378l1.508,7.282c-2.203,1.291 -6.066,2.518 -10.016,2.518" style="fill:#575756;fill-rule:nonzero;"/><path d="M650.154,92.263c0,5.914 3.332,9.181 9.561,9.181c3.798,0 7.672,-1.443 10.939,-3.104l1.888,6.978c-3.093,1.682 -8.182,3.646 -14.042,3.646c-11.46,0 -18.296,-7.141 -18.296,-19.436c0,-11.481 5.545,-19.284 17.472,-19.284c11.232,0 15.638,8.345 15.638,17.689l0,4.33l-23.158,0Zm6.978,-14.748c-4.938,0 -6.978,4.482 -6.978,8.899l13.587,0c0,-4.797 -1.432,-8.899 -6.609,-8.899" style="fill:#575756;fill-rule:nonzero;"/><path d="M701.94,79.273c-1.226,-0.38 -2.952,-0.619 -4.634,-0.619c-2.659,0 -5.014,1.15 -6.685,2.518l0,27.032l-9.875,0l0,-37.2l6.913,0l1.063,5.003l0.228,0c1.139,-2.659 4.482,-5.697 8.888,-5.697c1.964,0 3.494,0.304 4.33,0.532l-0.228,8.432Z" style="fill:#575756;fill-rule:nonzero;"/><path d="M710.968,108.204l0,-30.081l-4.319,-0.912l0,-6.207l14.194,0l0,37.2l-9.875,0Zm-0.304,-52.393l10.016,0l0,9.029l-10.016,0l0,-9.029Z" style="fill:#575756;fill-rule:nonzero;"/><path d="M763.285,89.517c0,12.686 -6.37,19.447 -17.461,19.447c-11.156,0 -17.461,-6.685 -17.461,-19.447c0,-10.928 6.066,-19.284 17.461,-19.284c11.232,0 17.461,8.356 17.461,19.284m-10.168,0c0,-8.964 -2.659,-12.078 -7.292,-12.078c-4.634,0 -7.206,3.19 -7.206,12.078c0,8.66 2.333,12.154 7.206,12.154c4.862,0 7.292,-3.256 7.292,-12.154" style="fill:#575756;fill-rule:nonzero;"/><path d="M811.5,73.88c-0.597,-2.127 -0.912,-4.026 -0.912,-6.826l0,-11.243l9.875,0l0,52.393l-8.052,0l-1.139,-4.102c-1.519,2.279 -5.09,4.862 -9.864,4.862c-8.432,0 -15.193,-6.077 -15.193,-19.36c0,-12.295 6.999,-19.371 16.017,-19.371c4.037,0 7.227,1.367 9.268,3.646m-0.912,5.61c-1.508,-0.912 -3.874,-1.801 -6.761,-1.801c-4.699,0 -7.661,3.19 -7.661,11.839c0,8.877 2.8,12.23 7.52,12.23c2.496,0 5.014,-1.226 6.902,-3.19l0,-19.078Z" style="fill:#575756;fill-rule:nonzero;"/><path d="M837.925,92.263c0,5.914 3.342,9.181 9.571,9.181c3.787,0 7.661,-1.443 10.928,-3.104l1.91,6.978c-3.114,1.682 -8.204,3.646 -14.042,3.646c-11.481,0 -18.307,-7.141 -18.307,-19.436c0,-11.481 5.534,-19.284 17.461,-19.284c11.243,0 15.638,8.345 15.638,17.689l0,4.33l-23.158,0Zm6.978,-14.748c-4.938,0 -6.978,4.482 -6.978,8.899l13.597,0c0,-4.797 -1.443,-8.899 -6.62,-8.899" style="fill:#575756;fill-rule:nonzero;"/><path d="M451.901,180.51c-14.433,0 -22.175,-9.561 -22.175,-26.652c0,-15.941 7.666,-26.121 22.175,-26.121c6.989,0 13.283,1.53 17.472,4.33l-3.809,8.041c-2.659,-2.04 -7.292,-3.559 -12.61,-3.559c-8.508,0 -12.751,6.001 -12.751,17.233c0,11.85 4.243,17.927 12.61,17.927c5.003,0 10.016,-2.127 13.511,-4.71l3.19,8.052c-5.079,3.494 -10.852,5.459 -17.613,5.459" style="fill:#575756;fill-rule:nonzero;"/><path d="M477.414,179.762l0,-30.081l-4.319,-0.912l0,-6.229l14.194,0l0,37.222l-9.875,0Zm-0.315,-52.404l10.027,0l0,9.04l-10.027,0l0,-9.04Z" style="fill:#575756;fill-rule:nonzero;"/><path d="M504.826,163.809c0,5.925 3.332,9.181 9.561,9.181c3.787,0 7.672,-1.443 10.928,-3.104l1.899,6.989c-3.104,1.671 -8.182,3.635 -14.042,3.635c-11.46,0 -18.296,-7.141 -18.296,-19.436c0,-11.47 5.534,-19.273 17.472,-19.273c11.221,0 15.627,8.345 15.627,17.689l0,4.319l-23.147,0Zm6.978,-14.737c-4.938,0 -6.978,4.482 -6.978,8.888l13.587,0c0,-4.786 -1.443,-8.888 -6.609,-8.888" style="fill:#575756;fill-rule:nonzero;"/><path d="M558.575,179.762l0,-22.105c0,-5.61 -2.127,-8.269 -6.685,-8.269c-2.583,0 -4.775,1.129 -6.522,2.279l0,28.096l-9.94,0l0,-37.222l6.826,0l1.519,4.265c2.127,-2.518 6.229,-5.014 11.763,-5.014c9.419,0 13.142,5.534 13.142,14.954l0,23.017l-10.103,0Z" style="fill:#575756;fill-rule:nonzero;"/><path d="M606.421,177.255c-2.138,1.139 -7.141,3.256 -12.762,3.256c-11.091,0 -17.765,-6.305 -17.765,-19.36c0,-12.143 6.674,-19.36 17.699,-19.36c4.938,0 9.181,0.988 12.751,3.028l-2.583,6.761c-2.659,-1.584 -6.077,-2.279 -9.354,-2.279c-5.155,0 -8.41,3.505 -8.41,11.85c0,8.432 3.114,11.839 8.486,11.839c3.885,0 7.683,-1.443 10.114,-2.811l1.823,7.075Z" style="fill:#575756;fill-rule:nonzero;"/><path d="M616.058,179.762l0,-30.081l-4.319,-0.912l0,-6.229l14.194,0l0,37.222l-9.875,0Zm-0.304,-52.404l10.016,0l0,9.04l-10.016,0l0,-9.04Z" style="fill:#575756;fill-rule:nonzero;"/><path d="M657.892,179.762l-1.356,-4.417c-1.899,2.594 -5.621,5.176 -10.863,5.176c-7.434,0 -12.447,-4.786 -12.447,-11.926c0,-6.913 5.09,-11.015 14.053,-11.015l7.813,0l0,-1.888c0,-4.797 -2.735,-6.305 -6.522,-6.305c-4.417,0 -8.128,1.129 -11.167,2.496l-2.518,-7.065c3.722,-1.584 8.812,-3.028 14.661,-3.028c10.559,0 15.106,4.862 15.106,14.357l0,23.614l-6.761,0Zm-2.8,-16.256l-6.153,0c-4.102,0 -6.001,1.964 -6.001,4.786c0,3.418 1.823,5.469 5.545,5.469c2.344,0 4.786,-1.074 6.609,-2.507l0,-7.748Z" style="fill:#575756;fill-rule:nonzero;"/><path d="M672.401,169.051l10.016,0l0,11.308c0,6.381 -3.646,9.04 -10.016,9.734l0,-5.176c1.367,-0.304 2.344,-1.595 2.344,-5.155l-2.344,-1.15l0,-9.561Z" style="fill:#575756;fill-rule:nonzero;"/><path d="M450.23,208.476l0,42.832l-10.331,0l0,-42.832l-12.371,0l0,-8.432l35.453,0l0,8.432l-12.751,0Z" style="fill:#575756;fill-rule:nonzero;"/><path d="M468.754,235.356c0,5.925 3.332,9.192 9.561,9.192c3.798,0 7.672,-1.443 10.939,-3.104l1.899,6.978c-3.104,1.682 -8.193,3.646 -14.053,3.646c-11.46,0 -18.296,-7.141 -18.296,-19.436c0,-11.481 5.545,-19.284 17.472,-19.284c11.232,0 15.638,8.345 15.638,17.689l0,4.319l-23.158,0Zm6.978,-14.737c-4.938,0 -6.978,4.482 -6.978,8.899l13.587,0c0,-4.797 -1.432,-8.899 -6.609,-8.899" style="fill:#575756;fill-rule:nonzero;"/><path d="M529.047,248.801c-2.138,1.15 -7.13,3.266 -12.762,3.266c-11.091,0 -17.765,-6.305 -17.765,-19.371c0,-12.154 6.674,-19.349 17.699,-19.349c4.938,0 9.181,0.988 12.751,3.028l-2.583,6.761c-2.659,-1.595 -6.077,-2.279 -9.333,-2.279c-5.176,0 -8.432,3.494 -8.432,11.839c0,8.432 3.114,11.839 8.486,11.839c3.885,0 7.683,-1.432 10.114,-2.8l1.823,7.065Z" style="fill:#575756;fill-rule:nonzero;"/><path d="M558.738,251.308l0,-22.094c0,-5.621 -2.138,-8.28 -6.685,-8.28c-2.594,0 -4.775,1.139 -6.533,2.279l0,28.096l-9.94,0l0,-37.2l6.826,0l1.519,4.243c2.127,-2.496 6.229,-5.014 11.763,-5.014c9.419,0 13.142,5.545 13.142,14.965l0,23.006l-10.092,0Z" style="fill:#575756;fill-rule:nonzero;"/><path d="M610.371,232.621c0,12.686 -6.381,19.447 -17.472,19.447c-11.156,0 -17.461,-6.685 -17.461,-19.447c0,-10.928 6.066,-19.284 17.461,-19.284c11.243,0 17.472,8.356 17.472,19.284m-10.168,0c0,-8.964 -2.659,-12.078 -7.303,-12.078c-4.634,0 -7.206,3.19 -7.206,12.078c0,8.66 2.344,12.154 7.206,12.154c4.862,0 7.303,-3.256 7.303,-12.154" style="fill:#575756;fill-rule:nonzero;"/><path d="M617.881,241.433l0,-42.518l9.799,0l0,41.986c0,3.125 1.899,3.57 6.001,3.57l0,6.989c0,0 -2.887,0.608 -5.469,0.608c-7.596,0 -10.331,-4.015 -10.331,-10.635" style="fill:#575756;fill-rule:nonzero;"/><path d="M673.54,232.621c0,12.686 -6.37,19.447 -17.472,19.447c-11.145,0 -17.461,-6.685 -17.461,-19.447c0,-10.928 6.077,-19.284 17.461,-19.284c11.243,0 17.472,8.356 17.472,19.284m-10.168,0c0,-8.964 -2.659,-12.078 -7.303,-12.078c-4.623,0 -7.195,3.19 -7.195,12.078c0,8.66 2.333,12.154 7.195,12.154c4.873,0 7.303,-3.256 7.303,-12.154" style="fill:#575756;fill-rule:nonzero;"/><path d="M714.691,214.097l-0.141,7.368c-1.747,-0.076 -4.482,-0.456 -6.999,-1.281c1.682,1.508 3.429,3.407 3.722,5.849c0,9.105 -9.04,12.74 -15.345,12.74c-1.432,0 -3.19,-0.293 -4.775,-0.684c-1.129,0.391 -1.823,1.063 -1.823,2.062c0,4.026 23.614,-0.695 23.614,13.283c0,8.725 -8.345,13.521 -17.689,13.521c-7.813,0 -15.724,-3.429 -15.724,-10.266c0,-4.775 3.798,-7.282 9.875,-8.193c-4.623,-0.532 -9.268,-1.964 -9.268,-6.305c0,-3.114 2.897,-5.393 7.065,-5.697c-3.722,-2.04 -6.685,-5.155 -6.685,-10.461c0,-9.897 9.343,-12.697 15.345,-12.697c4.026,0 12.382,0.695 18.828,0.76m-20.271,35.095c-3.483,0.293 -5.697,2.268 -5.697,5.459c0,3.266 2.963,5.61 6.989,5.61c4.482,0 7.434,-2.268 7.434,-6.131c0,-3.277 -2.876,-4.482 -8.725,-4.938m8.052,-23.245c0,-4.417 -3.722,-5.545 -6.609,-5.545c-2.887,0 -6.696,1.129 -6.696,5.545c0,4.699 3.57,5.838 6.696,5.838c3.039,0 6.609,-1.139 6.609,-5.838" style="fill:#575756;fill-rule:nonzero;"/><path d="M718.793,208.324l-0.988,-5.697l19.208,-5.383l1.291,7.292l-19.512,3.787Zm5.393,42.984l0,-30.081l-4.341,-0.89l0,-6.24l14.216,0l0,37.211l-9.875,0Z" style="fill:#575756;fill-rule:nonzero;"/><path d="M766.172,251.308l-1.367,-4.406c-1.888,2.583 -5.61,5.166 -10.852,5.166c-7.444,0 -12.447,-4.786 -12.447,-11.926c0,-6.902 5.079,-11.004 14.042,-11.004l7.813,0l0,-1.899c0,-4.786 -2.724,-6.305 -6.522,-6.305c-4.406,0 -8.117,1.139 -11.167,2.518l-2.507,-7.086c3.711,-1.584 8.812,-3.028 14.661,-3.028c10.548,0 15.106,4.862 15.106,14.357l0,23.614l-6.761,0Zm-2.811,-16.256l-6.153,0c-4.102,0 -5.99,1.975 -5.99,4.797c0,3.407 1.823,5.469 5.534,5.469c2.355,0 4.797,-1.074 6.609,-2.518l0,-7.748Z" style="fill:#575756;fill-rule:nonzero;"/><path d="M780.67,240.597l10.027,0l0,11.319c0,6.37 -3.646,9.04 -10.027,9.723l0,-5.166c1.367,-0.315 2.355,-1.606 2.355,-5.176l-2.355,-1.129l0,-9.571Z" style="fill:#575756;fill-rule:nonzero;"/><path d="M451.901,323.614c-14.433,0 -22.175,-9.561 -22.175,-26.652c0,-15.941 7.666,-26.121 22.175,-26.121c6.989,0 13.283,1.53 17.472,4.33l-3.809,8.052c-2.659,-2.051 -7.292,-3.57 -12.61,-3.57c-8.508,0 -12.751,6.001 -12.751,17.233c0,11.85 4.243,17.927 12.61,17.927c5.003,0 10.016,-2.127 13.511,-4.71l3.19,8.052c-5.079,3.494 -10.852,5.459 -17.613,5.459" style="fill:#575756;fill-rule:nonzero;"/><path d="M507.029,304.179c0,12.675 -6.381,19.436 -17.472,19.436c-11.156,0 -17.461,-6.685 -17.461,-19.436c0,-10.928 6.077,-19.295 17.461,-19.295c11.243,0 17.472,8.367 17.472,19.295m-10.168,0c0,-8.964 -2.659,-12.078 -7.303,-12.078c-4.634,0 -7.206,3.19 -7.206,12.078c0,8.649 2.344,12.154 7.206,12.154c4.862,0 7.303,-3.266 7.303,-12.154" style="fill:#575756;fill-rule:nonzero;"/><path d="M537.544,322.855l0,-22.094c0,-5.61 -2.127,-8.269 -6.685,-8.269c-2.583,0 -4.775,1.129 -6.522,2.279l0,28.085l-9.951,0l0,-37.2l6.837,0l1.519,4.243c2.127,-2.496 6.229,-5.003 11.763,-5.003c9.419,0 13.142,5.534 13.142,14.954l0,23.006l-10.103,0Z" style="fill:#575756;fill-rule:nonzero;"/><path d="M589.178,304.179c0,12.675 -6.37,19.436 -17.461,19.436c-11.156,0 -17.461,-6.685 -17.461,-19.436c0,-10.928 6.066,-19.295 17.461,-19.295c11.232,0 17.461,8.367 17.461,19.295m-10.157,0c0,-8.964 -2.67,-12.078 -7.303,-12.078c-4.634,0 -7.206,3.19 -7.206,12.078c0,8.649 2.333,12.154 7.206,12.154c4.862,0 7.303,-3.266 7.303,-12.154" style="fill:#575756;fill-rule:nonzero;"/><path d="M626.237,320.348c-2.127,1.15 -7.13,3.266 -12.751,3.266c-11.101,0 -17.765,-6.305 -17.765,-19.371c0,-12.132 6.663,-19.349 17.689,-19.349c4.938,0 9.181,0.988 12.751,3.028l-2.583,6.761c-2.659,-1.584 -6.066,-2.279 -9.333,-2.279c-5.176,0 -8.432,3.494 -8.432,11.839c0,8.443 3.114,11.861 8.486,11.861c3.885,0 7.694,-1.454 10.114,-2.821l1.823,7.065Z" style="fill:#575756;fill-rule:nonzero;"/><path d="M635.884,322.855l0,-30.071l-4.33,-0.912l0,-6.218l14.194,0l0,37.2l-9.864,0Zm-0.315,-52.393l10.016,0l0,9.04l-10.016,0l0,-9.04Z" style="fill:#575756;fill-rule:nonzero;"/><path d="M687.669,299.849l0,23.017l-10.027,0l0,-22.105c0,-5.61 -2.051,-8.269 -6.685,-8.269c-2.583,0 -4.547,1.129 -6.305,2.279l0,28.096l-9.94,0l0,-37.222l6.685,0l1.66,4.33c2.127,-2.583 5.773,-5.079 11.015,-5.079c6.066,0 9.712,1.823 11.622,5.231c2.203,-2.648 6.066,-5.231 11.243,-5.231c10.624,0 13.738,5.534 13.738,14.954l0,23.017l-10.092,0l0,-22.105c0,-5.61 -2.366,-8.269 -6.999,-8.269c-2.42,0 -4.623,1.129 -6.305,2.279c0.315,1.508 0.391,3.256 0.391,5.079" style="fill:#575756;fill-rule:nonzero;"/><path d="M721.755,322.855l0,-30.071l-4.319,-0.912l0,-6.218l14.194,0l0,37.2l-9.875,0Zm-0.304,-52.393l10.016,0l0,9.04l-10.016,0l0,-9.04Z" style="fill:#575756;fill-rule:nonzero;"/><path d="M749.167,306.913c0,5.925 3.332,9.181 9.571,9.181c3.787,0 7.661,-1.443 10.928,-3.104l1.899,6.989c-3.104,1.671 -8.193,3.635 -14.053,3.635c-11.46,0 -18.285,-7.141 -18.285,-19.436c0,-11.47 5.534,-19.273 17.461,-19.273c11.232,0 15.638,8.345 15.638,17.689l0,4.319l-23.158,0Zm6.978,-14.737c-4.938,0 -6.978,4.482 -6.978,8.888l13.597,0c0,-4.786 -1.443,-8.888 -6.62,-8.888" style="fill:#575756;fill-rule:nonzero;"/><path d="M802.927,322.855l0,-22.094c0,-5.61 -2.127,-8.269 -6.685,-8.269c-2.583,0 -4.775,1.129 -6.522,2.279l0,28.085l-9.951,0l0,-37.2l6.837,0l1.508,4.243c2.138,-2.496 6.229,-5.003 11.774,-5.003c9.419,0 13.131,5.534 13.131,14.954l0,23.006l-10.092,0Z" style="fill:#575756;fill-rule:nonzero;"/><path d="M834.897,323.614c-6.62,0 -10.939,-3.114 -10.939,-12.447l0,-18.448l-5.534,0l0,-7.065l5.534,0l0,-6.457l9.788,-3.201l0,9.658l9.962,0l0,7.065l-9.962,0l0,18.22c0,2.583 1.291,4.254 3.95,4.254c2.062,0 4.178,-0.608 5.708,-1.367l1.508,7.282c-2.203,1.291 -6.066,2.507 -10.016,2.507" style="fill:#575756;fill-rule:nonzero;"/><path d="M882.808,304.179c0,12.675 -6.381,19.436 -17.472,19.436c-11.156,0 -17.45,-6.685 -17.45,-19.436c0,-10.928 6.066,-19.295 17.45,-19.295c11.243,0 17.472,8.367 17.472,19.295m-10.168,0c0,-8.964 -2.659,-12.078 -7.303,-12.078c-4.623,0 -7.195,3.19 -7.195,12.078c0,8.649 2.333,12.154 7.195,12.154c4.862,0 7.303,-3.266 7.303,-12.154" style="fill:#575756;fill-rule:nonzero;"/><path d="M439.367,378.46c0,5.925 3.332,9.192 9.571,9.192c3.787,0 7.661,-1.443 10.928,-3.104l1.91,6.978c-3.114,1.671 -8.215,3.646 -14.042,3.646c-11.481,0 -18.313,-7.141 -18.313,-19.447c0,-11.47 5.539,-19.273 17.455,-19.273c11.253,0 15.648,8.345 15.648,17.678l0,4.33l-23.158,0Zm6.978,-14.737c-4.938,0 -6.978,4.482 -6.978,8.888l13.597,0c0,-4.786 -1.443,-8.888 -6.62,-8.888" style="fill:#575756;fill-rule:nonzero;"/><rect x="488.418" y="343.152" width="9.947" height="51.25" style="fill:#575756;"/><path d="M532.086,394.412l0,-22.094c0,-5.621 -2.138,-8.28 -6.685,-8.28c-2.594,0 -4.775,1.139 -6.533,2.279l0,28.096l-9.94,0l0,-37.222l6.826,0l1.519,4.265c2.127,-2.496 6.229,-5.014 11.763,-5.014c9.419,0 13.142,5.545 13.142,14.965l0,23.006l-10.092,0Z" style="fill:#575756;fill-rule:nonzero;"/><path d="M573.388,394.412l0,-22.094c0,-5.621 -2.127,-8.28 -6.685,-8.28c-2.583,0 -4.775,1.139 -6.522,2.279l0,28.096l-9.951,0l0,-37.222l6.837,0l1.508,4.265c2.127,-2.496 6.229,-5.014 11.774,-5.014c9.419,0 13.131,5.545 13.131,14.965l0,23.006l-10.092,0Z" style="fill:#575756;fill-rule:nonzero;"/><path d="M625.021,375.725c0,12.686 -6.381,19.447 -17.472,19.447c-11.156,0 -17.472,-6.685 -17.472,-19.447c0,-10.928 6.088,-19.284 17.472,-19.284c11.243,0 17.472,8.356 17.472,19.284m-10.168,0c0,-8.964 -2.67,-12.078 -7.303,-12.078c-4.623,0 -7.195,3.19 -7.195,12.078c0,8.66 2.333,12.154 7.195,12.154c4.862,0 7.303,-3.256 7.303,-12.154" style="fill:#575756;fill-rule:nonzero;"/><path d="M654.18,394.412l-14.509,0l-11.167,-37.222l11.167,0l7.824,31.232l0.304,0l7.748,-31.232l10.016,0l-11.384,37.222Z" style="fill:#575756;fill-rule:nonzero;"/><path d="M693.508,394.412l-1.367,-4.406c-1.888,2.583 -5.61,5.166 -10.852,5.166c-7.455,0 -12.447,-4.786 -12.447,-11.926c0,-6.902 5.079,-11.004 14.031,-11.004l7.835,0l0,-1.899c0,-4.786 -2.735,-6.305 -6.544,-6.305c-4.395,0 -8.128,1.139 -11.156,2.518l-2.507,-7.086c3.711,-1.584 8.801,-3.028 14.65,-3.028c10.559,0 15.117,4.862 15.117,14.357l0,23.614l-6.761,0Zm-2.8,-16.256l-6.164,0c-4.102,0 -5.99,1.975 -5.99,4.797c0,3.407 1.823,5.469 5.534,5.469c2.355,0 4.797,-1.074 6.62,-2.518l0,-7.748Z" style="fill:#575756;fill-rule:nonzero;"/><path d="M738.532,391.905c-2.127,1.139 -7.141,3.256 -12.751,3.256c-11.091,0 -17.765,-6.294 -17.765,-19.36c0,-12.143 6.674,-19.349 17.689,-19.349c4.938,0 9.192,0.977 12.762,3.028l-2.594,6.75c-2.659,-1.584 -6.066,-2.268 -9.343,-2.268c-5.155,0 -8.421,3.494 -8.421,11.839c0,8.432 3.114,11.861 8.497,11.861c3.874,0 7.683,-1.465 10.114,-2.821l1.812,7.065Z" style="fill:#575756;fill-rule:nonzero;"/><path d="M748.179,394.412l0,-30.081l-4.319,-0.912l0,-6.229l14.194,0l0,37.222l-9.875,0Zm-0.304,-52.393l10.016,0l0,9.029l-10.016,0l0,-9.029Z" style="fill:#575756;fill-rule:nonzero;"/><path d="M800.496,375.725c0,12.686 -6.381,19.447 -17.472,19.447c-11.145,0 -17.45,-6.685 -17.45,-19.447c0,-10.928 6.066,-19.284 17.45,-19.284c11.243,0 17.472,8.356 17.472,19.284m-26.652,-24.297l-0.988,-5.686l19.208,-5.393l1.291,7.292l-19.512,3.787Zm16.484,24.297c0,-8.964 -2.659,-12.078 -7.303,-12.078c-4.623,0 -7.195,3.19 -7.195,12.078c0,8.66 2.333,12.154 7.195,12.154c4.862,0 7.303,-3.256 7.303,-12.154" style="fill:#575756;fill-rule:nonzero;"/><path d="M831.023,394.412l0,-22.094c0,-5.621 -2.138,-8.28 -6.685,-8.28c-2.594,0 -4.775,1.139 -6.533,2.279l0,28.096l-9.94,0l0,-37.222l6.826,0l1.519,4.265c2.127,-2.496 6.229,-5.014 11.763,-5.014c9.419,0 13.142,5.545 13.142,14.965l0,23.006l-10.092,0Z" style="fill:#575756;fill-rule:nonzero;"/></g></svg>