<?xml version="1.0" encoding="UTF-8" standalone="no"?><!DOCTYPE svg PUBLIC "-//W3C//DTD SVG 1.1//EN" "http://www.w3.org/Graphics/SVG/1.1/DTD/svg11.dtd"><svg width="100%" height="100%" viewBox="0 0 484 278" version="1.1" xmlns="http://www.w3.org/2000/svg" xmlns:xlink="http://www.w3.org/1999/xlink" xml:space="preserve" xmlns:serif="http://www.serif.com/" style="fill-rule:evenodd;clip-rule:evenodd;stroke-linejoin:round;stroke-miterlimit:2;"><g><path d="M30.228,182.211c0,5.324 -1.171,9.608 -3.512,12.799c-2.347,3.221 -5.52,4.819 -9.525,4.819c-3.387,0 -6.132,-1.218 -8.224,-3.643l0,16.317l-8.967,0l0,-47.911l8.331,0l0.321,3.387c2.169,-2.68 5.003,-4.023 8.497,-4.023c4.13,0 7.35,1.575 9.65,4.73c2.3,3.149 3.452,7.493 3.452,13.055l0,0.469l-0.024,0Zm-8.967,-0.66c0,-3.215 -0.553,-5.71 -1.664,-7.457c-1.105,-1.747 -2.727,-2.62 -4.837,-2.62c-2.811,0 -4.748,1.111 -5.811,3.322l0,14.166c1.105,2.282 3.042,3.435 5.859,3.435c4.32,0 6.453,-3.625 6.453,-10.844" style="fill:#575756;fill-rule:nonzero;"/><path d="M55.044,173.265c-1.212,-0.172 -2.3,-0.256 -3.238,-0.256c-3.387,0 -5.621,1.194 -6.667,3.559l0,22.639l-8.967,0l0,-34.589l8.479,0l0.256,4.13c1.789,-3.173 4.302,-4.772 7.475,-4.772c0.998,0 1.919,0.131 2.793,0.404l-0.131,8.883Z" style="fill:#575756;fill-rule:nonzero;"/><path d="M57.237,181.573c0,-3.429 0.642,-6.495 1.919,-9.181c1.278,-2.686 3.131,-4.772 5.538,-6.239c2.407,-1.474 5.217,-2.216 8.39,-2.216c4.54,0 8.224,1.426 11.1,4.278c2.876,2.858 4.451,6.732 4.789,11.635l0.065,2.365c0,5.3 -1.45,9.561 -4.326,12.776c-2.87,3.221 -6.726,4.819 -11.587,4.819c-4.855,0 -8.711,-1.598 -11.587,-4.795c-2.894,-3.197 -4.326,-7.541 -4.326,-13.037l0,-0.404l0.024,0Zm8.967,0.66c0,3.28 0.6,5.794 1.812,7.541c1.194,1.747 2.918,2.62 5.152,2.62c2.175,0 3.88,-0.85 5.092,-2.579c1.218,-1.723 1.836,-4.468 1.836,-8.242c0,-3.215 -0.618,-5.728 -1.836,-7.499c-1.212,-1.765 -2.935,-2.662 -5.152,-2.662c-2.199,0 -3.898,0.873 -5.092,2.644c-1.212,1.765 -1.812,4.492 -1.812,8.176" style="fill:#575756;fill-rule:nonzero;"/><path d="M93.664,181.658c0,-5.306 1.236,-9.585 3.684,-12.823c2.448,-3.238 5.752,-4.855 9.929,-4.855c3.684,0 6.536,1.295 8.604,3.898l0.386,-3.262l8.135,0l0,33.442c0,3.025 -0.66,5.669 -2.002,7.903c-1.343,2.24 -3.215,3.946 -5.621,5.116c-2.43,1.171 -5.265,1.765 -8.503,1.765c-2.472,0 -4.855,-0.511 -7.196,-1.509c-2.347,-1.004 -4.112,-2.323 -5.306,-3.922l3.981,-5.621c2.24,2.573 4.944,3.874 8.141,3.874c2.383,0 4.237,-0.66 5.556,-1.961c1.325,-1.319 1.985,-3.173 1.985,-5.58l0,-1.854c-2.068,2.407 -4.795,3.625 -8.159,3.625c-4.047,0 -7.309,-1.622 -9.799,-4.878c-2.496,-3.262 -3.749,-7.564 -3.749,-12.93l0,-0.428l-0.065,0Zm8.967,0.683c0,3.131 0.618,5.603 1.836,7.392c1.212,1.789 2.894,2.662 5.027,2.662c2.721,0 4.682,-1.046 5.853,-3.173l0,-14.57c-1.188,-2.109 -3.131,-3.179 -5.794,-3.179c-2.151,0 -3.856,0.921 -5.069,2.727c-1.236,1.812 -1.854,4.516 -1.854,8.141" style="fill:#575756;fill-rule:nonzero;"/><path d="M150.518,173.265c-1.212,-0.172 -2.3,-0.256 -3.238,-0.256c-3.387,0 -5.621,1.194 -6.667,3.559l0,22.639l-8.967,0l0,-34.589l8.479,0l0.256,4.13c1.789,-3.173 4.302,-4.772 7.475,-4.772c0.998,0 1.919,0.131 2.793,0.404l-0.131,8.883Z" style="fill:#575756;fill-rule:nonzero;"/><path d="M173.737,199.21c-0.404,-0.832 -0.725,-1.872 -0.897,-3.108c-2.169,2.49 -5.003,3.749 -8.473,3.749c-3.28,0 -6.031,-0.98 -8.182,-2.941c-2.175,-1.961 -3.238,-4.433 -3.238,-7.416c0,-3.66 1.319,-6.477 3.963,-8.432c2.638,-1.961 6.453,-2.941 11.439,-2.983l4.13,0l0,-1.985c0,-1.592 -0.404,-2.876 -1.188,-3.833c-0.79,-0.957 -2.044,-1.45 -3.773,-1.45c-1.509,0 -2.68,0.386 -3.553,1.129c-0.856,0.749 -1.283,1.771 -1.283,3.072l-8.967,0c0,-2.002 0.6,-3.856 1.812,-5.562c1.194,-1.705 2.894,-3.048 5.092,-4.005c2.193,-0.98 4.665,-1.45 7.392,-1.45c4.13,0 7.434,1.064 9.858,3.221c2.43,2.151 3.643,5.152 3.643,9.026l0,14.998c0.024,3.28 0.469,5.776 1.343,7.457l0,0.553l-9.115,0l0,-0.042Zm-7.416,-6.435c1.325,0 2.561,-0.297 3.666,-0.915c1.105,-0.618 1.937,-1.426 2.49,-2.448l0,-5.942l-3.339,0c-4.498,0 -6.881,1.598 -7.178,4.789l-0.024,0.559c0,1.147 0.386,2.104 1.171,2.828c0.767,0.749 1.854,1.129 3.215,1.129" style="fill:#575756;fill-rule:nonzero;"/><path d="M197.168,164.595l0.279,3.874c2.383,-3.001 5.597,-4.516 9.65,-4.516c4.32,0 7.285,1.771 8.901,5.288c2.365,-3.518 5.728,-5.288 10.096,-5.288c3.643,0 6.352,1.087 8.141,3.286c1.789,2.193 2.662,5.473 2.662,9.858l0,22.093l-9.014,0l0,-22.069c0,-1.961 -0.38,-3.387 -1.105,-4.302c-0.749,-0.915 -2.068,-1.367 -3.94,-1.367c-2.686,0 -4.558,1.325 -5.58,3.963l0.042,23.751l-8.973,0l0,-22.027c0,-1.997 -0.38,-3.446 -1.147,-4.344c-0.767,-0.891 -2.068,-1.343 -3.922,-1.343c-2.531,0 -4.385,1.087 -5.514,3.262l0,24.452l-8.967,0l0,-34.595l8.39,0l0,0.024Z" style="fill:#575756;fill-rule:nonzero;"/><path d="M263.65,199.21c-0.404,-0.832 -0.725,-1.872 -0.897,-3.108c-2.169,2.49 -5.003,3.749 -8.473,3.749c-3.28,0 -6.031,-0.98 -8.182,-2.941c-2.175,-1.961 -3.238,-4.433 -3.238,-7.416c0,-3.66 1.319,-6.477 3.963,-8.432c2.638,-1.961 6.453,-2.941 11.439,-2.983l4.13,0l0,-1.985c0,-1.592 -0.404,-2.876 -1.188,-3.833c-0.79,-0.957 -2.044,-1.45 -3.773,-1.45c-1.509,0 -2.68,0.386 -3.553,1.129c-0.856,0.749 -1.283,1.771 -1.283,3.072l-8.967,0c0,-2.002 0.6,-3.856 1.812,-5.562c1.194,-1.705 2.894,-3.048 5.092,-4.005c2.193,-0.98 4.665,-1.45 7.392,-1.45c4.13,0 7.434,1.064 9.858,3.221c2.43,2.151 3.643,5.152 3.643,9.026l0,14.998c0.024,3.28 0.469,5.776 1.343,7.457l0,0.553l-9.115,0l0,-0.042Zm-7.434,-6.435c1.319,0 2.555,-0.297 3.66,-0.915c1.111,-0.618 1.943,-1.426 2.496,-2.448l0,-5.942l-3.345,0c-4.492,0 -6.881,1.598 -7.178,4.789l-0.024,0.559c0,1.147 0.386,2.104 1.177,2.828c0.784,0.749 1.848,1.129 3.215,1.129" style="fill:#575756;fill-rule:nonzero;"/><path d="M325.106,182.211c0,5.324 -1.171,9.608 -3.512,12.799c-2.347,3.221 -5.52,4.819 -9.525,4.819c-3.387,0 -6.132,-1.218 -8.224,-3.643l0,16.317l-8.967,0l0,-47.911l8.331,0l0.321,3.387c2.169,-2.68 5.003,-4.023 8.497,-4.023c4.13,0 7.35,1.575 9.65,4.73c2.3,3.149 3.452,7.493 3.452,13.055l0,0.469l-0.024,0Zm-8.99,-0.66c0,-3.215 -0.553,-5.71 -1.658,-7.457c-1.111,-1.747 -2.727,-2.62 -4.837,-2.62c-2.811,0 -4.754,1.111 -5.817,3.322l0,14.166c1.111,2.282 3.048,3.435 5.859,3.435c4.326,0 6.453,-3.625 6.453,-10.844" style="fill:#575756;fill-rule:nonzero;"/><path d="M350.497,199.21c-0.404,-0.832 -0.725,-1.872 -0.897,-3.108c-2.169,2.49 -5.003,3.749 -8.473,3.749c-3.28,0 -6.031,-0.98 -8.182,-2.941c-2.175,-1.961 -3.238,-4.433 -3.238,-7.416c0,-3.66 1.319,-6.477 3.963,-8.432c2.638,-1.961 6.453,-2.941 11.439,-2.983l4.13,0l0,-1.985c0,-1.592 -0.404,-2.876 -1.188,-3.833c-0.79,-0.957 -2.044,-1.45 -3.773,-1.45c-1.509,0 -2.68,0.386 -3.553,1.129c-0.856,0.749 -1.283,1.771 -1.283,3.072l-8.967,0c0,-2.002 0.6,-3.856 1.812,-5.562c1.194,-1.705 2.894,-3.048 5.092,-4.005c2.193,-0.98 4.665,-1.45 7.392,-1.45c4.13,0 7.434,1.064 9.858,3.221c2.43,2.151 3.643,5.152 3.643,9.026l0,14.998c0.024,3.28 0.469,5.776 1.343,7.457l0,0.553l-9.115,0l0,-0.042Zm-7.416,-6.435c1.325,0 2.561,-0.297 3.666,-0.915c1.105,-0.618 1.937,-1.426 2.49,-2.448l0,-5.942l-3.339,0c-4.498,0 -6.881,1.598 -7.178,4.789l-0.024,0.559c0,1.147 0.386,2.104 1.171,2.828c0.767,0.749 1.854,1.129 3.215,1.129" style="fill:#575756;fill-rule:nonzero;"/><path d="M384.388,173.265c-1.212,-0.172 -2.3,-0.256 -3.238,-0.256c-3.387,0 -5.621,1.194 -6.667,3.559l0,22.639l-8.967,0l0,-34.589l8.479,0l0.256,4.13c1.789,-3.173 4.302,-4.772 7.475,-4.772c0.998,0 1.919,0.131 2.787,0.404l-0.125,8.883Z" style="fill:#575756;fill-rule:nonzero;"/><path d="M407.607,199.21c-0.404,-0.832 -0.725,-1.872 -0.897,-3.108c-2.169,2.49 -5.003,3.749 -8.473,3.749c-3.28,0 -6.031,-0.98 -8.182,-2.941c-2.175,-1.961 -3.238,-4.433 -3.238,-7.416c0,-3.66 1.319,-6.477 3.963,-8.432c2.638,-1.961 6.453,-2.941 11.439,-2.983l4.13,0l0,-1.985c0,-1.592 -0.404,-2.876 -1.188,-3.833c-0.79,-0.957 -2.044,-1.45 -3.773,-1.45c-1.509,0 -2.68,0.386 -3.553,1.129c-0.856,0.749 -1.283,1.771 -1.283,3.072l-8.967,0c0,-2.002 0.6,-3.856 1.812,-5.562c1.194,-1.705 2.894,-3.048 5.092,-4.005c2.193,-0.98 4.665,-1.45 7.392,-1.45c4.13,0 7.434,1.064 9.858,3.221c2.43,2.151 3.643,5.152 3.643,9.026l0,14.998c0.024,3.28 0.469,5.776 1.343,7.457l0,0.553l-9.115,0l0,-0.042Zm-7.416,-6.435c1.325,0 2.561,-0.297 3.666,-0.915c1.105,-0.618 1.937,-1.426 2.49,-2.448l0,-5.942l-3.339,0c-4.498,0 -6.881,1.598 -7.178,4.789l-0.024,0.559c0,1.147 0.386,2.104 1.171,2.828c0.79,0.749 1.854,1.129 3.215,1.129" style="fill:#575756;fill-rule:nonzero;"/><path d="M454.3,199.849c-4.92,0 -8.925,-1.557 -12.033,-4.665c-3.09,-3.108 -4.647,-7.267 -4.647,-12.443l0,-0.891c0,-3.476 0.66,-6.584 1.961,-9.329c1.301,-2.751 3.149,-4.861 5.538,-6.328c2.383,-1.491 5.11,-2.216 8.182,-2.216c4.599,0 8.2,1.491 10.838,4.474c2.644,2.983 3.963,7.22 3.963,12.692l0,3.773l-21.386,0c0.297,2.258 1.171,4.07 2.62,5.431c1.468,1.367 3.298,2.044 5.538,2.044c3.452,0 6.156,-1.278 8.093,-3.874l4.409,5.092c-1.343,1.955 -3.173,3.494 -5.473,4.599c-2.282,1.087 -4.813,1.64 -7.606,1.64m-1.022,-28.439c-1.789,0 -3.215,0.618 -4.326,1.854c-1.105,1.236 -1.812,3.025 -2.127,5.324l12.478,0l0,-0.743c-0.042,-2.044 -0.57,-3.643 -1.616,-4.772c-1.046,-1.087 -2.514,-1.664 -4.409,-1.664" style="fill:#575756;fill-rule:nonzero;"/><rect x="474.051" y="150.087" width="9.008" height="49.123" style="fill:#575756;"/><path d="M8.415,242.665l0.279,3.874c2.383,-3.001 5.597,-4.516 9.65,-4.516c4.32,0 7.285,1.771 8.901,5.283c2.365,-3.512 5.728,-5.283 10.096,-5.283c3.643,0 6.352,1.087 8.141,3.286c1.789,2.193 2.662,5.473 2.662,9.858l0,22.093l-9.014,0l0,-22.069c0,-1.961 -0.38,-3.387 -1.105,-4.302c-0.749,-0.915 -2.068,-1.367 -3.94,-1.367c-2.686,0 -4.558,1.325 -5.58,3.963l0.042,23.751l-8.973,0l0,-22.027c0,-2.002 -0.38,-3.446 -1.147,-4.344c-0.767,-0.891 -2.068,-1.343 -3.922,-1.343c-2.531,0 -4.385,1.087 -5.514,3.262l0,24.452l-8.967,0l0,-34.595l8.39,0l0,0.024Z" style="fill:#575756;fill-rule:nonzero;"/><path d="M70.892,277.92c-4.92,0 -8.925,-1.557 -12.033,-4.665c-3.09,-3.108 -4.647,-7.267 -4.647,-12.443l0,-0.891c0,-3.476 0.66,-6.584 1.961,-9.329c1.301,-2.751 3.149,-4.861 5.538,-6.328c2.383,-1.491 5.11,-2.216 8.182,-2.216c4.599,0 8.2,1.491 10.838,4.474c2.644,2.983 3.963,7.22 3.963,12.692l0,3.773l-21.386,0c0.297,2.258 1.171,4.07 2.62,5.431c1.468,1.367 3.298,2.044 5.538,2.044c3.452,0 6.156,-1.278 8.093,-3.874l4.409,5.092c-1.343,1.955 -3.173,3.494 -5.473,4.599c-2.282,1.087 -4.813,1.64 -7.606,1.64m-1.046,-28.439c-1.789,0 -3.215,0.618 -4.32,1.854c-1.111,1.236 -1.812,3.025 -2.133,5.324l12.484,0l0,-0.743c-0.042,-2.044 -0.576,-3.643 -1.622,-4.772c-1.022,-1.087 -2.49,-1.664 -4.409,-1.664" style="fill:#575756;fill-rule:nonzero;"/><path d="M88.785,259.728c0,-5.389 1.171,-9.692 3.512,-12.888c2.347,-3.197 5.562,-4.789 9.65,-4.789c3.262,0 5.966,1.254 8.099,3.767l0,-17.66l9.008,0l0,49.123l-8.093,0l-0.428,-3.684c-2.234,2.876 -5.11,4.32 -8.628,4.32c-3.963,0 -7.136,-1.592 -9.519,-4.813c-2.407,-3.215 -3.601,-7.665 -3.601,-13.376m8.967,0.683c0,3.238 0.553,5.728 1.64,7.451c1.111,1.729 2.686,2.603 4.772,2.603c2.769,0 4.73,-1.218 5.859,-3.625l0,-13.673c-1.105,-2.407 -3.048,-3.625 -5.817,-3.625c-4.302,0 -6.453,3.625 -6.453,10.868" style="fill:#575756;fill-rule:nonzero;"/><path d="M126.319,233.719c0,-1.385 0.446,-2.537 1.343,-3.429c0.891,-0.897 2.127,-1.343 3.684,-1.343c1.533,0 2.745,0.446 3.666,1.343c0.915,0.891 1.361,2.044 1.361,3.429c0,1.408 -0.469,2.555 -1.385,3.452c-0.915,0.891 -2.127,1.343 -3.643,1.343c-1.515,0 -2.727,-0.452 -3.643,-1.343c-0.915,-0.897 -1.385,-2.044 -1.385,-3.452m9.543,43.562l-9.008,0l0,-34.595l9.008,0l0,34.595Z" style="fill:#575756;fill-rule:nonzero;"/><path d="M142.231,259.643c0,-3.429 0.642,-6.495 1.919,-9.181c1.278,-2.686 3.131,-4.772 5.538,-6.239c2.407,-1.474 5.217,-2.216 8.39,-2.216c4.54,0 8.224,1.426 11.1,4.278c2.876,2.858 4.451,6.732 4.789,11.635l0.065,2.365c0,5.3 -1.45,9.561 -4.326,12.776c-2.87,3.221 -6.726,4.819 -11.587,4.819c-4.855,0 -8.711,-1.598 -11.587,-4.795c-2.894,-3.197 -4.326,-7.541 -4.326,-13.037l0,-0.404l0.024,0Zm8.967,0.66c0,3.28 0.6,5.794 1.812,7.541c1.194,1.747 2.918,2.62 5.152,2.62c2.175,0 3.88,-0.85 5.092,-2.579c1.218,-1.723 1.836,-4.468 1.836,-8.242c0,-3.215 -0.618,-5.728 -1.836,-7.499c-1.212,-1.765 -2.935,-2.662 -5.152,-2.662c-2.199,0 -3.898,0.873 -5.092,2.644c-1.212,1.765 -1.812,4.492 -1.812,8.176" style="fill:#575756;fill-rule:nonzero;"/><path d="M215.637,277.28c-0.404,-0.832 -0.725,-1.872 -0.897,-3.108c-2.169,2.49 -5.003,3.749 -8.473,3.749c-3.28,0 -6.031,-0.98 -8.182,-2.941c-2.175,-1.961 -3.238,-4.433 -3.238,-7.416c0,-3.66 1.319,-6.477 3.963,-8.432c2.638,-1.961 6.453,-2.941 11.439,-2.983l4.13,0l0,-1.985c0,-1.592 -0.404,-2.876 -1.188,-3.833c-0.79,-0.957 -2.044,-1.45 -3.773,-1.45c-1.509,0 -2.68,0.386 -3.553,1.129c-0.856,0.749 -1.283,1.771 -1.283,3.072l-8.967,0c0,-2.002 0.6,-3.856 1.812,-5.562c1.194,-1.705 2.894,-3.048 5.092,-4.005c2.193,-0.98 4.665,-1.45 7.392,-1.45c4.13,0 7.434,1.064 9.858,3.221c2.43,2.151 3.643,5.152 3.643,9.032l0,14.992c0.024,3.28 0.469,5.776 1.343,7.457l0,0.553l-9.115,0l0,-0.042Zm-7.416,-6.435c1.325,0 2.561,-0.297 3.666,-0.915c1.105,-0.618 1.937,-1.426 2.49,-2.448l0,-5.942l-3.339,0c-4.498,0 -6.881,1.598 -7.178,4.789l-0.024,0.559c0,1.147 0.386,2.104 1.171,2.828c0.767,0.749 1.83,1.129 3.215,1.129" style="fill:#575756;fill-rule:nonzero;"/><path d="M239.047,242.665l0.279,3.874c2.383,-3.001 5.597,-4.516 9.65,-4.516c4.32,0 7.303,1.771 8.901,5.283c2.365,-3.512 5.728,-5.283 10.096,-5.283c3.643,0 6.352,1.087 8.141,3.286c1.789,2.193 2.662,5.473 2.662,9.858l0,22.093l-8.99,0l0,-22.069c0,-1.961 -0.386,-3.387 -1.105,-4.302c-0.749,-0.915 -2.068,-1.367 -3.946,-1.367c-2.68,0 -4.558,1.325 -5.58,3.963l0.042,23.751l-8.967,0l0,-22.027c0,-2.002 -0.38,-3.446 -1.153,-4.344c-0.767,-0.891 -2.062,-1.343 -3.916,-1.343c-2.537,0 -4.391,1.087 -5.52,3.262l0,24.452l-8.967,0l0,-34.595l8.372,0l0,0.024Z" style="fill:#575756;fill-rule:nonzero;"/><path d="M316.33,260.282c0,5.538 -1.153,9.864 -3.452,12.972c-2.3,3.114 -5.496,4.647 -9.626,4.647c-3.643,0 -6.56,-1.45 -8.735,-4.326l-0.404,3.684l-8.075,0l0,-49.123l8.973,0l0,17.618c2.062,-2.49 4.789,-3.749 8.159,-3.749c4.088,0 7.303,1.557 9.626,4.647c2.323,3.108 3.494,7.475 3.494,13.096l0,0.535l0.042,0Zm-8.967,-0.66c0,-3.494 -0.535,-6.049 -1.622,-7.671c-1.087,-1.598 -2.68,-2.407 -4.813,-2.407c-2.852,0 -4.837,1.218 -5.901,3.625l0,13.655c1.111,2.424 3.09,3.643 5.966,3.643c2.894,0 4.789,-1.474 5.71,-4.415c0.446,-1.402 0.66,-3.553 0.66,-6.429" style="fill:#575756;fill-rule:nonzero;"/><path d="M322.187,233.719c0,-1.385 0.446,-2.537 1.343,-3.429c0.891,-0.897 2.127,-1.343 3.684,-1.343c1.533,0 2.745,0.446 3.666,1.343c0.915,0.891 1.361,2.044 1.361,3.429c0,1.408 -0.469,2.555 -1.385,3.452c-0.915,0.891 -2.127,1.343 -3.643,1.343c-1.515,0 -2.727,-0.452 -3.643,-1.343c-0.939,-0.897 -1.385,-2.044 -1.385,-3.452m9.519,43.562l-9.008,0l0,-34.595l9.008,0l0,34.595Z" style="fill:#575756;fill-rule:nonzero;"/><path d="M354.949,277.92c-4.92,0 -8.925,-1.557 -12.033,-4.665c-3.09,-3.108 -4.647,-7.267 -4.647,-12.443l0,-0.891c0,-3.476 0.66,-6.584 1.961,-9.329c1.301,-2.751 3.149,-4.861 5.538,-6.328c2.383,-1.491 5.11,-2.216 8.182,-2.216c4.599,0 8.2,1.491 10.838,4.474c2.644,2.983 3.963,7.22 3.963,12.692l0,3.773l-21.386,0c0.297,2.258 1.171,4.07 2.62,5.431c1.468,1.367 3.298,2.044 5.538,2.044c3.452,0 6.156,-1.278 8.093,-3.874l4.409,5.092c-1.343,1.955 -3.173,3.494 -5.473,4.599c-2.258,1.087 -4.813,1.64 -7.606,1.64m-1.022,-28.439c-1.789,0 -3.215,0.618 -4.326,1.854c-1.105,1.236 -1.812,3.025 -2.127,5.324l12.478,0l0,-0.743c-0.042,-2.044 -0.57,-3.643 -1.616,-4.772c-1.046,-1.087 -2.514,-1.664 -4.409,-1.664" style="fill:#575756;fill-rule:nonzero;"/><path d="M382.493,242.665l0.279,4.005c2.407,-3.09 5.621,-4.647 9.65,-4.647c3.553,0 6.215,1.07 7.945,3.238c1.747,2.151 2.62,5.372 2.662,9.65l0,22.348l-8.967,0l0,-22.134c0,-1.961 -0.41,-3.387 -1.236,-4.26c-0.832,-0.873 -2.216,-1.319 -4.136,-1.319c-2.531,0 -4.427,1.105 -5.687,3.322l0,24.392l-8.967,0l0,-34.595l8.456,0Z" style="fill:#575756;fill-rule:nonzero;"/><path d="M420.985,234.166l0,8.497l5.752,0l0,6.774l-5.752,0l0,17.28c0,1.278 0.232,2.193 0.725,2.745c0.469,0.553 1.385,0.832 2.727,0.832c0.998,0 1.872,-0.065 2.638,-0.214l0,7.006c-1.747,0.559 -3.577,0.832 -5.431,0.832c-6.281,0 -9.501,-3.28 -9.626,-9.816l0,-18.64l-4.902,0l0,-6.774l4.902,0l0,-8.497l8.967,0l0,-0.024Z" style="fill:#575756;fill-rule:nonzero;"/><path d="M447.569,277.92c-4.92,0 -8.925,-1.557 -12.033,-4.665c-3.09,-3.108 -4.647,-7.267 -4.647,-12.443l0,-0.891c0,-3.476 0.66,-6.584 1.961,-9.329c1.301,-2.751 3.149,-4.861 5.538,-6.328c2.383,-1.491 5.11,-2.216 8.182,-2.216c4.599,0 8.2,1.491 10.838,4.474c2.644,2.983 3.963,7.22 3.963,12.692l0,3.773l-21.386,0c0.297,2.258 1.171,4.07 2.62,5.431c1.468,1.367 3.298,2.044 5.538,2.044c3.452,0 6.156,-1.278 8.093,-3.874l4.409,5.092c-1.343,1.955 -3.173,3.494 -5.473,4.599c-2.282,1.087 -4.813,1.64 -7.606,1.64m-1.046,-28.439c-1.789,0 -3.215,0.618 -4.32,1.854c-1.111,1.236 -1.812,3.025 -2.133,5.324l12.484,0l0,-0.743c-0.042,-2.044 -0.576,-3.643 -1.622,-4.772c-1.022,-1.087 -2.49,-1.664 -4.409,-1.664" style="fill:#575756;fill-rule:nonzero;"/><path d="M404.689,97.346c-14.677,-4.516 -25.373,-18.385 -25.373,-34.809c0,-2.959 0.345,-5.835 1.004,-8.604l23.174,3.025c0,0 8.907,0.404 8.563,16.448c-0.273,15.592 -7.368,23.941 -7.368,23.941" style="fill:#575756;fill-rule:nonzero;"/><path d="M425.415,97.346c14.677,-4.516 25.373,-18.385 25.373,-34.809c0,-2.959 -0.345,-5.835 -1.004,-8.604l-23.174,3.025c0,0 -8.907,0.404 -8.563,16.448c0.297,15.592 7.368,23.941 7.368,23.941" style="fill:#575756;fill-rule:nonzero;"/><path d="M415.063,36.53c2.983,0 5.413,2.472 5.413,5.496c0,2.365 -1.598,4.13 -3.542,5.176c-0.232,0.131 -0.446,0.232 -0.404,0.618c0.048,0.386 1.153,0.594 1.64,0.701l31.166,3.684c-4.367,-15.034 -18.04,-26.026 -34.233,-26.026l-0.042,0c-16.186,0 -29.865,10.969 -34.233,26.026l31.166,-3.684c0.469,-0.107 1.575,-0.315 1.64,-0.701c0.042,-0.386 -0.172,-0.487 -0.404,-0.618c-1.943,-1.046 -3.536,-2.811 -3.536,-5.176c-0.048,-3.048 2.383,-5.496 5.366,-5.496" style="fill:#575756;fill-rule:nonzero;"/><path d="M429.292,123.078l2.109,-1.343c0,0 -10.012,-13.821 -32.42,-13.821c-11.462,0 -17.404,4.706 -25.438,4.706c0,0 -3.298,0.404 -6.453,-1.622c0,0 3.815,5.645 17.66,5.645c10.161,0 17.404,-6.049 24.517,-6.049c9.733,0 17,8.866 20.025,12.484" style="fill:#575756;fill-rule:nonzero;"/><path d="M398.192,123.078l-2.109,-1.343c0,0 10.012,-13.821 32.42,-13.821c11.462,0 17.404,4.706 25.438,4.706c0,0 3.298,0.404 6.453,-1.622c0,0 -3.815,5.645 -17.66,5.645c-10.161,0 -17.404,-6.049 -24.517,-6.049c-9.757,0 -17,8.866 -20.025,12.484" style="fill:#575756;fill-rule:nonzero;"/><path d="M387.498,106.697c-0.404,1.064 -4.688,-0.19 -7.582,0.683c-3.238,0.98 -20.364,3.09 -27.886,-15.039c0,0 7.119,7.772 12.657,8.325c5.538,0.535 11.605,1.878 16.739,4.837l1.194,0.279c0,0 -0.172,-0.535 -0.66,-0.808c-0.683,-0.362 -6.007,-2.133 -8.563,-10.737c-1.319,-4.433 -1.064,-7.648 -1.575,-9.929c0,0 5.794,6.584 8.176,10.737c2.365,4.154 2.62,8.842 7.499,11.652" style="fill:#575756;fill-rule:nonzero;"/><path d="M370.031,97.58c-0.428,0.446 -1.515,-0.279 -1.919,-0.469c-0.404,-0.19 -3.238,-1.533 -8.111,-3.28c-4.819,-1.747 -13.786,-9.46 -12.912,-22.687c0,0 1.26,4.962 4.944,8.265c3.684,3.28 5.003,3.684 7.243,6.37c2.234,2.686 7.303,8.8 7.517,8.735c0.19,-0.065 0.256,-0.404 -0.125,-0.749c-0.41,-0.339 -1.705,-3.684 -2.579,-4.831c-0.856,-1.153 -3.429,-8.99 0.321,-18.664c0,0 4.023,7.053 3.749,14.166c-0.256,7.113 -0.6,5.431 1.129,11.332c0.018,0 0.957,1.622 0.743,1.812" style="fill:#575756;fill-rule:nonzero;"/><path d="M358.827,80.326c-0.232,0.232 -1.26,-1.278 -2.044,-2.686c-0.79,-1.402 -6.328,-7.451 -7.053,-8.646c-0.725,-1.212 -6.923,-8.86 -2.234,-20.197c0,0 0.469,-0.125 0.469,2.561c0,2.68 2.424,8.646 4.409,11.201c1.979,2.555 3.749,6.649 4.154,11.017c0,0 0.256,0.808 0.594,0.873c0.321,0.059 0.321,-0.814 0.321,-0.814c0,0 -0.256,-4.023 -0.256,-6.774c0,-2.745 1.194,-7.451 3.749,-10.137c0,0 1.194,-1.343 1.919,-2.959c0,0 0.463,-1.07 1.129,-1.622c0,0 0.529,7.713 -2.05,14.891c-2.573,7.178 -3.429,8.39 -3.025,12.294c-0.018,0 0.065,0.868 -0.083,0.998" style="fill:#575756;fill-rule:nonzero;"/><path d="M354.481,59.131c-0.256,0 -0.469,-0.939 -0.594,-1.682c-0.131,-0.749 -0.921,-5.027 -1.45,-5.966c-0.535,-0.939 -2.514,-5.241 -2.579,-10.268c-0.065,-5.027 2.175,-11.884 7.178,-17.315c0,0 -0.19,1.616 -1.509,5.176c-1.325,3.553 -0.535,6.923 -0.404,7.517c0.125,0.6 0.594,4.754 0.594,6.709c0,1.539 -0.404,6.839 -0.725,7.927c0,0 -0.125,0.743 0.131,0.743c0.256,0 0.529,-0.594 0.529,-0.594c0,0 0.256,-4.154 3.304,-7.921c3.025,-3.749 8.497,-6.055 9.353,-7.713c0,0 -0.41,5.901 -6.798,12.823c-5.687,6.156 -4.029,3.025 -5.859,8.052c0,0 -0.784,1.872 -0.784,2.282c0.018,0.357 -0.386,0.232 -0.386,0.232" style="fill:#575756;fill-rule:nonzero;"/><path d="M357.974,39.256c0,0 -0.125,-0.808 0.85,-2.62c0.98,-1.812 -0.059,-5.027 1.26,-9.733c1.319,-4.706 3.749,-12.764 13.055,-17.577c0,0 -0.915,0.873 -1.385,1.533c-0.463,0.683 -2.959,5.496 -3.684,8.866c-0.725,3.363 -3.898,8.984 -5.069,10.268c-1.194,1.278 -0.66,1.402 -0.66,1.402c0,0 0.594,-0.125 1.194,-1.064c0.594,-0.939 3.619,-4.433 6.982,-5.241c3.369,-0.808 8.693,-2.407 9.032,-2.745c0,0 -5.794,6.049 -11.136,9.115c-5.348,3.09 -5.924,2.151 -9.097,6.305c-0.024,0.024 -1.064,1.491 -1.343,1.491" style="fill:#575756;fill-rule:nonzero;"/><path d="M370.755,21.342c0,0 0,-0.535 0.98,-1.468c0.98,-0.939 1.979,-3.749 3.684,-6.37c1.705,-2.62 5.603,-9.46 15.681,-11.076c0,0 -3.03,2.276 -3.494,3.025c-0.469,0.743 -3.435,4.706 -4.754,6.049c-1.319,1.343 -5.069,4.154 -6.328,4.772c0,0 -0.66,0.529 -0.529,0.743c0.125,0.196 0.79,-0.19 0.79,-0.19c0,0 3.488,-2.745 7.707,-2.876c4.219,-0.125 8.628,0.065 9.288,0.131c0,0 -3.963,2.745 -13.376,4.492c-9.418,1.747 -7.648,1.812 -9.097,2.745c0.042,-0.042 -0.273,0.214 -0.553,0.024" style="fill:#575756;fill-rule:nonzero;"/><path d="M387.563,10.201c0,0 0.19,-0.535 1.705,-0.998c1.509,-0.469 1.385,-1.943 6.007,-4.433c4.623,-2.496 9.412,-3.625 14.291,-1.533c0,0 -2.044,0.273 -2.365,0.404c-0.321,0.125 -3.809,1.064 -4.813,1.616c-0.98,0.535 -6.073,2.817 -8.117,3.221c-2.044,0.404 -1.064,0.529 -1.064,0.529c0,0 0.469,0.196 0.85,0.196c0.404,0 4.944,-0.469 7.903,0.594c2.965,1.064 2.9,1.468 4.094,1.872c1.188,0.404 2.573,0.683 2.769,1.153c0,0 -2.965,0.279 -4.754,0.279c-1.789,0 -6.453,-0.469 -8.687,-1.539c-2.24,-1.064 -4.819,-1.533 -5.669,-1.337c-0.832,0.166 -1.872,0.166 -2.151,-0.024" style="fill:#575756;fill-rule:nonzero;"/><path d="M406.286,7.857c0,0 0.19,-0.279 1.515,-0.535c1.319,-0.273 1.64,-1.064 4.748,-1.747c3.09,-0.677 7.903,-1.278 12.336,1.812c0,0 -2.71,-0.065 -3.304,-0.065c-0.594,0 -5.728,0.939 -6.923,0.939c-1.194,0 -3.559,-0.529 -3.898,-0.125c-0.321,0.404 2.169,0.933 2.579,1.064c0.404,0.125 2.169,0.273 4.409,2.49c2.234,2.216 3.809,3.429 4.088,3.559c0,0 -6.584,-1.533 -8.242,-2.49c-1.64,-0.939 -4.474,-3.839 -4.944,-4.029c-0.446,-0.214 -2.365,-0.873 -2.365,-0.873" style="fill:#575756;fill-rule:nonzero;"/><path d="M421.517,10.605c0,0 4.154,-0.131 7.178,1.812c3.025,1.937 5.473,4.492 5.728,6.049c0,0 -1.699,-1.474 -2.828,-1.812c-1.129,-0.339 -4.284,-2.151 -4.944,-2.555c-0.66,-0.404 -4.474,-2.9 -5.134,-3.494" style="fill:#575756;fill-rule:nonzero;"/><path d="M441.03,107.443c0,0 0.594,-0.594 2.579,-2.341c1.979,-1.747 2.514,-4.302 4.682,-8.265c2.175,-3.963 4.029,-6.709 8.438,-10.737c0,0 -0.79,3.025 -0.85,3.963c-0.065,0.933 -0.79,6.174 -3.304,9.198c-2.514,3.025 -2.644,3.69 -5.538,5.496c0,0 -1.129,0.814 -1.064,1.07c0.059,0.273 1.979,-0.065 1.979,-0.065c0,0 2.109,-0.808 2.769,-1.218c0.66,-0.404 3.625,-1.937 4.813,-2.407c1.194,-0.463 2.175,-0.933 4.813,-1.747c2.644,-0.808 12.187,-3.28 15.961,-9.454c0,0 -1.129,3.619 -2.514,5.3c-1.39,1.688 -9.228,12.205 -20.114,12.015c0,0 -4.278,-0.339 -6.519,-0.743c-2.234,-0.404 -3.025,-0.404 -3.363,-0.345c-0.339,0.089 -2.448,0.493 -2.769,0.279" style="fill:#575756;fill-rule:nonzero;"/><path d="M465.356,69.803c0,0 -4.088,6.519 -5.003,15.913c-0.921,9.394 0.66,6.584 -0.856,10.737c0,0 -0.529,1.064 -0.321,1.147c0.196,0.065 0.98,-0.404 3.898,-2.216c2.9,-1.806 5.734,-1.278 11.932,-7.303c6.198,-6.049 7.457,-18.064 7.582,-19.068c0,0 -0.915,0.939 -1.385,2.561c-0.469,1.616 -1.45,2.876 -1.64,3.084c-0.19,0.196 -6.923,7.713 -7.713,8.396c-0.784,0.677 -4.748,5.58 -5.597,6.988c-0.856,1.402 -3.369,3.957 -3.815,3.749c0,0 0.065,-0.6 0.256,-1.07c0.19,-0.469 2.044,-3.025 2.834,-5.96c0.784,-2.965 0.98,-4.772 1.064,-6.649c0.024,-1.937 -1.171,-8.842 -1.236,-10.31" style="fill:#575756;fill-rule:nonzero;"/><path d="M470.894,78.856c0,0 -0.404,-0.98 -0.065,-1.682c0.196,-0.404 0.404,-3.625 -0.784,-6.245c-1.194,-2.62 -3.749,-9.858 -3.559,-14.695c0.19,-4.837 0.725,-5.496 0.725,-5.496c0,0 1.319,3.963 1.705,4.623c0.404,0.683 4.344,7.772 4.023,11.67c-0.321,3.898 -0.529,5.092 -0.321,5.182c0.196,0.059 0.666,-0.469 0.725,-0.939c0.065,-0.469 0.725,-3.155 1.985,-6.305c1.254,-3.155 6.322,-10.143 7.451,-14.766c0,0 1.64,8.052 -2.769,15.574c-4.409,7.517 -4.878,5.835 -6.726,9.264c-1.878,3.411 -2.133,3.815 -2.389,3.815" style="fill:#575756;fill-rule:nonzero;"/><path d="M474.899,57.576c-0.321,-0.065 -0.131,-3.155 -0.915,-4.154c-0.79,-1.004 -7.582,-9.204 -9.032,-17.381c0,0 4.278,4.427 5.003,4.896c0.725,0.469 3.625,3.429 4.474,5.966c0.856,2.555 0.66,4.706 0.98,4.772c0.321,0.065 0.321,-2.811 0.321,-2.811c0,0 0.065,-5.645 0.529,-8.331c0.469,-2.686 1.64,-7.178 1.129,-9.46c0,0 2.579,4.154 2.43,10.078c-0.125,5.901 -2.579,10.607 -2.894,11.266c-0.321,0.683 -1.26,3.559 -1.26,4.159c0.042,0.594 -0.767,0.998 -0.767,0.998" style="fill:#575756;fill-rule:nonzero;"/><path d="M466.868,15.569c0,0 8.901,5.366 7.517,23.347c0,0 0,0.808 -0.529,-0.065c-0.535,-0.873 -2.43,-3.363 -3.304,-3.898c-0.85,-0.529 -8.777,-5.431 -12.122,-12.948c0,0 0.535,-0.131 1.325,0.594c0.784,0.743 3.238,2.026 3.619,2.216c0.404,0.19 3.173,0.939 5.199,3.215c2.044,2.282 2.769,3.963 3.363,5.306c0,0 0.6,0.469 0.19,-0.873c-0.404,-1.343 -0.463,-2.216 -1.509,-3.898c-1.046,-1.682 -1.979,-4.706 -2.109,-6.774c-0.125,-2.068 -0.725,-5.158 -1.64,-6.221" style="fill:#575756;fill-rule:nonzero;"/><path d="M465.356,21.874c0,0 0.19,-1.212 -0.66,-2.876c-0.856,-1.682 -0.19,-3.536 -2.9,-7.986c-1.509,-2.496 -6.792,-4.433 -6.792,-4.433c0,0 1.509,2.151 2.514,3.363c0.98,1.218 1.319,2.092 1.64,2.686c0.321,0.6 2.151,2.389 2.834,3.429c0.125,0.196 0.404,0.749 0.404,1.07c0,0.339 -0.725,-0.196 -0.915,-0.41c-0.196,-0.19 -3.435,-2.68 -5.479,-3.084c-2.044,-0.404 -5.918,-0.814 -6.988,-1.343c0,0 4.623,4.219 9.632,5.496c4.985,1.278 6.709,4.088 6.709,4.088" style="fill:#575756;fill-rule:nonzero;"/><path d="M454.94,10.797c0,0 -4.623,-6.37 -12.847,-6.239c0,0 0.469,0.469 1.385,0.677c0.915,0.196 2.579,1.878 3.429,2.407c0.856,0.535 2.62,1.878 8.034,3.155" style="fill:#575756;fill-rule:nonzero;"/><path d="M98.201,62.986c0,8.99 -1.194,17.042 -3.559,24.155c-2.383,7.136 -5.704,13.168 -10.012,18.106c-4.302,4.944 -9.454,8.759 -15.485,11.421c-6.025,2.662 -12.651,3.981 -19.87,3.981c-7.243,0 -13.869,-1.319 -19.876,-3.981c-6.031,-2.662 -11.207,-6.453 -15.574,-11.421c-4.344,-4.938 -7.754,-10.969 -10.179,-18.106c-2.43,-7.113 -3.643,-15.164 -3.643,-24.155l0,-5.158c0,-8.925 1.194,-16.953 3.601,-24.113c2.407,-7.154 5.77,-13.227 10.096,-18.23c4.326,-5.009 9.501,-8.842 15.527,-11.504c6.031,-2.662 12.657,-3.981 19.876,-3.981c7.243,0 13.869,1.319 19.876,3.981c6.025,2.662 11.183,6.495 15.527,11.504c4.326,5.003 7.689,11.076 10.096,18.23c2.407,7.16 3.601,15.188 3.601,24.113l0,5.158Zm-24.072,-5.324c0,-12.312 -2.175,-21.665 -6.495,-28.076c-4.326,-6.394 -10.506,-9.585 -18.533,-9.585c-8.034,0 -14.208,3.191 -18.533,9.585c-4.326,6.388 -6.495,15.764 -6.495,28.076l0,5.324c0,6.132 0.57,11.546 1.699,16.252c1.129,4.706 2.775,8.652 4.926,11.866c2.127,3.197 4.772,5.621 7.879,7.261c3.108,1.64 6.691,2.454 10.696,2.454c8.028,0 14.184,-3.221 18.444,-9.674c4.284,-6.453 6.412,-15.824 6.412,-28.136l0,-5.348Z" style="fill:#575756;fill-rule:nonzero;"/><path d="M209.27,119.052l-23.798,0l-46.242,-77.259l0,77.259l-23.757,0l0,-117.434l23.774,0l46.331,77.432l0,-77.432l23.691,0l0,117.434Z" style="fill:#575756;fill-rule:nonzero;"/><path d="M317.288,1.616l0,77.497c0,6.774 -1.105,12.758 -3.322,17.933c-2.216,5.176 -5.283,9.525 -9.181,13.019c-3.922,3.488 -8.563,6.132 -13.976,7.897c-5.413,1.771 -11.314,2.668 -17.702,2.668c-6.435,0 -12.377,-0.897 -17.785,-2.668c-5.413,-1.765 -10.078,-4.409 -13.976,-7.897c-3.922,-3.494 -6.964,-7.844 -9.139,-13.019c-2.193,-5.199 -3.28,-11.159 -3.28,-17.933l0,-77.497l23.774,0l0,77.497c0,7.689 1.806,13.293 5.431,16.804c3.619,3.518 8.628,5.283 15.016,5.283c6.435,0 11.439,-1.765 15.022,-5.283c3.553,-3.512 5.342,-9.115 5.342,-16.804l0,-77.497l23.774,0Z" style="fill:#575756;fill-rule:nonzero;"/></g></svg>