<?xml version="1.0" encoding="UTF-8" standalone="no"?><!DOCTYPE svg PUBLIC "-//W3C//DTD SVG 1.1//EN" "http://www.w3.org/Graphics/SVG/1.1/DTD/svg11.dtd"><svg width="100%" height="100%" viewBox="0 0 576 243" version="1.1" xmlns="http://www.w3.org/2000/svg" xmlns:xlink="http://www.w3.org/1999/xlink" xml:space="preserve" xmlns:serif="http://www.serif.com/" style="fill-rule:evenodd;clip-rule:evenodd;stroke-linejoin:round;stroke-miterlimit:2;"><g><path d="M115,1.858l0,139.083l-13.908,0l-85.769,-114.281l0,114.281l-14.835,0l0,-139.083l13.908,0l86,114.279l0,-114.279l14.604,0Z" style="fill:#575756;fill-rule:nonzero;"/><path d="M186.634,126.105c30.83,0 54.939,-23.413 54.939,-54.706c0,-31.294 -24.109,-54.706 -54.939,-54.706l-23.182,0l0,109.412l23.182,0Zm-37.786,-124.248l38.018,0c38.248,0 69.541,31.061 69.541,69.541c0,38.48 -31.294,69.541 -69.541,69.541l-38.018,0l0,-139.083Z" style="fill:#575756;fill-rule:nonzero;"/><path d="M279.131,71.399c0,-39.409 31.992,-71.399 71.394,-71.399c26.663,-0 49.841,14.608 62.127,36.162l-12.752,7.187c-9.503,-17.153 -28.049,-28.51 -49.376,-28.51c-31.292,0 -56.557,25.034 -56.557,56.561c0,31.525 25.265,56.561 56.557,56.561c21.327,0 39.873,-11.361 49.376,-28.512l12.752,7.185c-12.286,21.558 -35.464,36.162 -62.127,36.162c-39.402,0 -71.394,-31.99 -71.394,-71.396Z" style="fill:#575756;fill-rule:nonzero;"/><path d="M35.709,193.577c0,-7.187 -5.501,-11.904 -12.24,-11.904l-16.282,0l0,23.582l16.282,0c6.739,0 12.24,-4.268 12.24,-11.678Zm7.187,-0.113c0,10.444 -8.309,18.641 -18.754,18.641l-16.956,0l-0,29.984l-7.187,0l0,-67.377l24.142,0c10.444,0 18.754,8.421 18.754,18.752Z" style="fill:#575756;fill-rule:nonzero;"/><path d="M82.207,219.518l-12.577,-36.272l-12.69,36.272l25.267,0Zm2.359,6.852l-29.984,0l-5.501,15.72l-7.862,0l24.37,-67.377l7.973,0l24.368,67.377l-7.862,0l-5.501,-15.72Z" style="fill:#575756;fill-rule:nonzero;"/><path d="M129.827,204.806c6.85,0 12.017,-4.604 12.017,-11.454c0,-6.737 -5.279,-11.454 -12.017,-11.454l-16.508,0l0,22.908l16.508,0Zm23.471,37.283l-8.198,0l-19.09,-30.432l-12.69,0l0,30.432l-7.187,0l0,-67.377l24.144,0c10.331,0 18.754,8.308 18.754,18.865c0,9.096 -6.739,16.508 -15.609,17.742l19.877,30.77Z" style="fill:#575756;fill-rule:nonzero;"/><path d="M199.794,181.898l-18.641,0l0,60.192l-7.188,0l0,-60.192l-18.641,0l0,-7.185l44.47,0l0,7.185Z" style="fill:#575756;fill-rule:nonzero;"/><path d="M264.483,174.713l0,67.377l-6.739,0l-41.549,-55.362l0,55.362l-7.187,0l0,-67.377l6.737,0l41.662,55.36l0,-55.36l7.076,0Z" style="fill:#575756;fill-rule:nonzero;"/><path d="M288.634,181.674l0,23.245l25.827,0l0,6.963l-25.827,0l0,23.245l29.646,0l0,6.963l-36.832,0l0,-67.377l36.832,0l0,6.961l-29.646,0Z" style="fill:#575756;fill-rule:nonzero;"/><path d="M356.915,204.806c6.852,0 12.018,-4.604 12.018,-11.454c0,-6.737 -5.281,-11.454 -12.018,-11.454l-16.504,0l0,22.908l16.504,0Zm23.472,37.283l-8.2,0l-19.09,-30.432l-12.686,0l0,30.432l-7.188,0l0,-67.377l24.142,0c10.331,0 18.755,8.308 18.755,18.865c0,9.096 -6.737,16.508 -15.611,17.742l19.878,30.77Z" style="fill:#575756;fill-rule:nonzero;"/><path d="M384.66,229.287l6.513,-3.818c2.355,6.177 7.86,10.331 15.496,10.331c7.522,0 13.476,-4.042 13.476,-11.229c0,-16.732 -32.79,-11.343 -32.79,-33.016c0,-11.005 8.419,-17.742 18.75,-17.742c7.751,0 14.264,3.705 17.967,8.421l-5.614,4.717c-2.695,-3.818 -6.963,-5.951 -12.128,-5.951c-6.289,0 -11.789,3.256 -11.789,9.995c0,16.058 32.79,10.442 32.79,33.351c0,11.791 -9.323,18.643 -20.777,18.643c-9.991,0 -18.417,-5.39 -21.895,-13.702Z" style="fill:#575756;fill-rule:nonzero;"/><path d="M490.334,174.713l0,67.377l-7.188,0l0,-30.095l-37.167,0l0,30.095l-7.187,0l0,-67.377l7.187,0l0,30.093l37.167,0l0,-30.093l7.188,0Z" style="fill:#575756;fill-rule:nonzero;"/><rect x="507.299" y="174.713" width="7.187" height="67.377" style="fill:#575756;fill-rule:nonzero;"/><path d="M567.044,193.577c0,-7.187 -5.505,-11.904 -12.242,-11.904l-16.281,0l0,23.582l16.281,0c6.737,0 12.242,-4.268 12.242,-11.678Zm7.187,-0.113c0,10.444 -8.309,18.641 -18.755,18.641l-16.954,0l0,29.984l-7.187,0l0,-67.377l24.14,0c10.446,0 18.755,8.421 18.755,18.752Z" style="fill:#575756;fill-rule:nonzero;"/><path d="M575.033,64.641l-37.091,-63.622l-8.807,-0l37.091,63.622l8.807,0Z" style="fill:#575756;fill-rule:nonzero;"/><path d="M565.053,79.25l-35.968,61.694l8.807,0l35.968,-61.694l-8.807,0Z" style="fill:#575756;fill-rule:nonzero;"/><path d="M542.641,64.641l-37.093,-63.622l-8.807,-0l37.091,63.622l8.808,0Z" style="fill:#575756;fill-rule:nonzero;"/><path d="M532.659,79.25l-35.968,61.694l8.807,0l35.968,-61.694l-8.807,0Z" style="fill:#575756;fill-rule:nonzero;"/><path d="M510.72,64.641l-37.093,-63.622l-8.807,-0l37.091,63.622l8.808,0Z" style="fill:#575756;fill-rule:nonzero;"/><path d="M500.738,79.25l-35.967,61.694l8.807,0l35.968,-61.694l-8.808,0Z" style="fill:#575756;fill-rule:nonzero;"/><path d="M478.799,64.641l-37.093,-63.622l-8.807,-0l37.093,63.622l8.807,0Z" style="fill:#575756;fill-rule:nonzero;"/><path d="M468.818,79.25l-35.968,61.694l8.807,0l35.968,-61.694l-8.807,0Z" style="fill:#575756;fill-rule:nonzero;"/></g></svg>