<?xml version="1.0" encoding="UTF-8" standalone="no"?><!DOCTYPE svg PUBLIC "-//W3C//DTD SVG 1.1//EN" "http://www.w3.org/Graphics/SVG/1.1/DTD/svg11.dtd"><svg width="100%" height="100%" viewBox="0 0 1867 278" version="1.1" xmlns="http://www.w3.org/2000/svg" xmlns:xlink="http://www.w3.org/1999/xlink" xml:space="preserve" xmlns:serif="http://www.serif.com/" style="fill-rule:evenodd;clip-rule:evenodd;stroke-linejoin:round;stroke-miterlimit:2;"><g><path d="M609.179,97.802c2.561,-5.421 4.03,-11.447 4.03,-17.834c0,-14.742 -7.648,-27.703 -19.168,-35.199c0.113,-0.91 0.181,-1.831 0.181,-2.775c0,-12.684 -10.322,-23 -23.006,-23c-12.684,0 -23.006,10.316 -23.006,23c0,7.88 3.985,14.838 10.039,18.987c-3.047,2.091 -5.568,4.901 -7.326,8.174c-8.275,-6.201 -13.662,-16.048 -13.662,-27.161c0,-17.557 13.391,-32.033 30.49,-33.78c1.153,-0.073 2.295,-0.175 3.465,-0.175c29.196,0 52.942,23.752 52.942,52.942c0,14.312 -5.726,27.285 -14.979,36.821m-52.925,-55.808c0,-8.253 6.71,-14.968 14.962,-14.968c7.84,0 14.278,6.06 14.912,13.736c-4.641,-1.769 -9.655,-2.787 -14.912,-2.787c-2.216,0 -4.019,1.798 -4.019,4.019c0,2.227 1.803,4.019 4.019,4.019c4.737,0 9.242,0.984 13.346,2.736c-2.476,4.873 -7.524,8.213 -13.346,8.213c-8.253,0 -14.962,-6.71 -14.962,-14.968m14.962,33.955c-4.731,0 -9.242,-0.978 -13.334,-2.742c2.47,-4.861 7.518,-8.208 13.334,-8.208c8.258,0 14.974,6.715 14.974,14.968c0,8.258 -6.715,14.968 -14.974,14.968c-7.84,0 -14.273,-6.054 -14.906,-13.736c4.646,1.775 9.649,2.787 14.906,2.787c2.221,0 4.019,-1.798 4.019,-4.019c0,-2.221 -1.798,-4.019 -4.019,-4.019m-52.937,-14.968c0,-14.307 5.726,-27.285 14.974,-36.821c-2.555,5.426 -4.03,11.452 -4.03,17.834c0,14.736 7.654,27.703 19.174,35.199c-0.107,0.916 -0.187,1.837 -0.187,2.775c0,12.69 10.322,23.006 23.006,23.006c12.684,0 23.006,-10.316 23.006,-23.006c0,-7.88 -3.985,-14.838 -10.039,-18.987c3.052,-2.091 5.573,-4.895 7.331,-8.168c8.27,6.195 13.657,16.048 13.657,27.155c0,17.551 -13.385,32.039 -30.49,33.78c-1.147,0.073 -2.295,0.181 -3.465,0.181c-29.19,0 -52.937,-23.758 -52.937,-52.948m52.937,-60.98c-33.622,0 -60.98,27.359 -60.98,60.98c0,33.627 27.359,60.98 60.98,60.98c33.627,0 60.98,-27.353 60.98,-60.98c0,-33.622 -27.353,-60.98 -60.98,-60.98" style="fill:#575756;fill-rule:nonzero;"/><path d="M937.935,113.926c-15.624,0 -29.642,-6.845 -39.342,-17.647c1.131,-0.859 2.148,-1.724 3.002,-2.521c3.442,3.567 9.626,8.27 18.348,8.27c8.784,0 14.804,-4.42 18.218,-7.965c3.493,3.522 9.575,7.965 18.049,7.965c8.756,0 14.765,-4.392 18.184,-7.931c0.763,0.791 1.656,1.622 2.657,2.442c-9.694,10.649 -23.617,17.387 -39.116,17.387m39.851,-28.348c-0.735,-1.181 -2.046,-1.899 -3.431,-1.899c-1.424,0 -2.747,0.774 -3.471,1.995c-0.198,0.345 -5.036,8.315 -14.674,8.315c-9.231,0 -14.488,-8.083 -14.691,-8.411c-0.74,-1.181 -2.046,-1.899 -3.431,-1.899c-1.424,0 -2.747,0.774 -3.471,1.995c-0.198,0.345 -5.036,8.315 -14.674,8.315c-9.231,0 -14.482,-8.083 -14.691,-8.411c-1.379,-2.216 -4.952,-2.408 -6.585,-0.373c-0.023,0.034 -1.956,2.419 -5.003,4.72c-3.697,-5.63 -6.348,-12 -7.676,-18.84c6.744,-1.023 12.283,-5.116 15.607,-8.202c3.442,3.572 9.626,8.275 18.348,8.275c8.784,0 14.804,-4.426 18.218,-7.97c3.493,3.527 9.575,7.97 18.049,7.97c8.75,0 14.759,-4.386 18.179,-7.931c3.182,3.307 8.473,7.377 15.494,7.851c-1.351,6.964 -4.059,13.448 -7.857,19.157c-2.679,-2.233 -4.222,-4.635 -4.239,-4.658m-88.113,-46.244c5.065,-1.651 9.225,-4.822 11.921,-7.32c3.442,3.567 9.626,8.27 18.348,8.27c8.784,0 14.804,-4.42 18.218,-7.97c3.493,3.533 9.575,7.97 18.049,7.97c8.756,0 14.765,-4.392 18.19,-7.936c2.611,2.719 6.67,5.941 11.938,7.275c2.9,6.546 4.539,13.758 4.539,21.361c0,0.701 -0.073,1.379 -0.102,2.075c-7.801,-0.345 -12.764,-7.998 -12.99,-8.355c-0.735,-1.176 -2.046,-1.894 -3.431,-1.894c-1.424,0 -2.747,0.769 -3.471,1.995c-0.198,0.339 -5.036,8.309 -14.674,8.309c-9.231,0 -14.488,-8.083 -14.691,-8.411c-0.74,-1.181 -2.046,-1.894 -3.431,-1.894c-1.424,0 -2.747,0.769 -3.471,1.995c-0.198,0.339 -5.036,8.309 -14.674,8.309c-9.231,0 -14.482,-8.083 -14.691,-8.411c-1.379,-2.21 -4.952,-2.408 -6.585,-0.367c-0.068,0.085 -5.986,7.45 -13.566,8.756c-0.028,-0.707 -0.107,-1.396 -0.107,-2.108c0,-7.716 1.701,-15.03 4.68,-21.649m83.992,-17.303c-1.147,0.203 -2.176,0.876 -2.781,1.899c-0.198,0.345 -5.036,8.315 -14.674,8.315c-9.231,0 -14.488,-8.083 -14.691,-8.411c-0.74,-1.176 -2.046,-1.894 -3.431,-1.894c-1.424,0 -2.747,0.769 -3.471,1.99c-0.198,0.345 -5.036,8.315 -14.674,8.315c-9.231,0 -14.482,-8.083 -14.691,-8.411c-0.673,-1.074 -1.86,-1.662 -3.086,-1.769c9.434,-8.677 21.977,-14.024 35.77,-14.024c13.781,0 26.302,5.336 35.73,13.99m-35.73,-22.028c-33.622,0 -60.98,27.359 -60.98,60.98c0,33.622 27.359,60.98 60.98,60.98c33.622,0 60.98,-27.359 60.98,-60.98c0,-33.622 -27.359,-60.98 -60.98,-60.98" style="fill:#575756;fill-rule:nonzero;"/><path d="M1331.458,106.557l0,-30.162l23.831,0c-3.9,12.786 -12.537,23.492 -23.831,30.162m-45.577,3.872l0,-34.034l37.533,0l0,34.034c-5.839,2.221 -12.147,3.499 -18.761,3.499c-6.614,0 -12.922,-1.277 -18.772,-3.499m-34.17,-49.449c0,-6.608 1.272,-12.922 3.499,-18.761l22.639,0l0,64.338c-15.612,-9.219 -26.138,-26.172 -26.138,-45.577m26.138,-45.577l0,18.778l-18.778,0c4.573,-7.738 11.034,-14.205 18.778,-18.778m54.666,0.644l-18.134,18.134l-28.5,0l0,-22.644c5.85,-2.221 12.159,-3.499 18.772,-3.499c10.226,0 19.756,2.968 27.862,8.01m17.715,18.134l-24.487,0l13.34,-13.334c4.409,3.793 8.174,8.298 11.147,13.334m-43.887,8.038l-20.462,20.457l0,-20.457l20.462,0Zm50.67,26.138l-65.446,0l26.138,-26.138l36.391,0c2.221,5.839 3.499,12.153 3.499,18.761c0,2.51 -0.237,4.957 -0.582,7.377m-52.36,-68.357c-33.622,-0 -60.98,27.359 -60.98,60.98c0,33.627 27.359,60.986 60.98,60.986c33.622,0 60.98,-27.359 60.98,-60.986c0,-33.622 -27.359,-60.98 -60.98,-60.98" style="fill:#575756;fill-rule:nonzero;"/><path d="M1087.867,101.992c5.02,-0.17 7.868,-2.001 10.152,-3.51c1.978,-1.294 3.284,-2.154 6.19,-2.154c3.052,0 4.347,0.865 6.314,2.176c2.351,1.566 5.28,3.522 10.774,3.522c5.483,0 8.411,-1.956 10.768,-3.522c1.961,-1.311 3.262,-2.176 6.32,-2.176c3.052,0 4.347,0.865 6.314,2.176c2.238,1.487 5.025,3.318 10.022,3.488c-9.118,7.45 -20.756,11.933 -33.424,11.933c-12.673,0 -24.306,-4.483 -33.429,-11.933m33.429,-93.952c26.855,0 49.059,20.118 52.439,46.074l-27.121,0c-15.607,0 -15.607,-5.166 -15.607,-7.371c0,-1.47 0.35,-4.217 2.725,-6.116c2.628,-2.103 6.885,-2.572 12.317,-1.357c1.662,0.373 3.363,-0.334 4.268,-1.758c0.91,-1.424 0.825,-3.267 -0.198,-4.613c-5.082,-6.619 -13.47,-10.112 -24.267,-10.112c-18.292,0 -25.256,10.57 -30.852,19.066c-5.155,7.829 -8.473,12.26 -16.619,12.26l-9.53,0c3.38,-25.957 25.584,-46.074 52.445,-46.074m51.258,60.319c-5.483,0 -8.417,1.95 -10.768,3.522c-1.967,1.306 -3.262,2.176 -6.314,2.176c-3.058,0 -4.358,-0.87 -6.314,-2.176c-2.357,-1.571 -5.285,-3.522 -10.774,-3.522c-5.489,0 -8.422,1.956 -10.779,3.522c-1.956,1.306 -3.256,2.176 -6.308,2.176c-3.058,0 -4.352,-0.87 -6.32,-2.176c-2.351,-1.571 -5.285,-3.522 -10.768,-3.522c-5.308,0 -8.236,1.922 -10.593,3.471c-1.973,1.294 -3.392,2.227 -6.5,2.227c-3.052,0 -4.352,-0.87 -6.314,-2.176c-2.357,-1.571 -5.285,-3.522 -10.768,-3.522c-0.379,0 -0.735,0.023 -1.102,0.045c-0.283,-2.058 -0.475,-4.132 -0.52,-6.252l9.971,0c12.871,0 18.427,-8.434 23.328,-15.872c5.466,-8.292 10.18,-15.454 24.142,-15.454c2.843,0 5.438,0.288 7.772,0.859c-2.08,0.707 -3.697,1.69 -4.912,2.668c-3.652,2.922 -5.743,7.439 -5.743,12.39c0,10.226 7.953,15.409 23.645,15.409l27.568,0c-0.051,2.12 -0.237,4.2 -0.526,6.257c-0.367,-0.017 -0.718,-0.051 -1.102,-0.051m-6.789,21.242c-1.6,0.673 -2.888,1.487 -3.979,2.216c-1.967,1.311 -3.262,2.171 -6.314,2.171c-3.058,0 -4.358,-0.859 -6.314,-2.176c-2.357,-1.566 -5.291,-3.522 -10.774,-3.522c-5.489,0 -8.422,1.956 -10.779,3.527c-1.956,1.311 -3.256,2.171 -6.308,2.171c-3.058,0 -4.352,-0.859 -6.32,-2.176c-2.351,-1.566 -5.285,-3.522 -10.768,-3.522c-5.308,0 -8.236,1.928 -10.593,3.471c-1.973,1.294 -3.392,2.227 -6.5,2.227c-3.052,0 -4.347,-0.859 -6.314,-2.171c-1.085,-0.729 -2.38,-1.543 -3.979,-2.216c-2.623,-4.059 -4.72,-8.473 -6.161,-13.182c2.6,0.113 3.866,0.938 5.681,2.142c2.357,1.577 5.285,3.527 10.774,3.527c5.511,0 8.502,-1.961 10.904,-3.539c1.978,-1.3 3.284,-2.159 6.19,-2.159c3.052,0 4.347,0.865 6.314,2.171c2.351,1.577 5.28,3.527 10.774,3.527c5.489,0 8.411,-1.95 10.768,-3.527c1.961,-1.306 3.262,-2.171 6.32,-2.171c3.052,0 4.347,0.865 6.314,2.171c2.357,1.577 5.28,3.527 10.774,3.527c5.489,0 8.417,-1.95 10.774,-3.527c1.82,-1.204 3.081,-2.029 5.681,-2.142c-1.441,4.709 -3.539,9.123 -6.161,13.182m-44.469,-89.599c-33.627,0 -60.98,27.359 -60.98,60.98c0,33.622 27.353,60.98 60.98,60.98c33.622,0 60.975,-27.359 60.975,-60.98c0,-33.622 -27.353,-60.98 -60.975,-60.98" style="fill:#575756;fill-rule:nonzero;"/><path d="M1528.134,95.423l-14.493,-14.493c-1.577,-1.577 -4.115,-1.577 -5.687,0c-1.571,1.566 -1.571,4.109 0,5.675l14.493,14.505c-8.315,7.145 -18.846,11.735 -30.422,12.611l0,-30.106c9.468,-1.679 16.935,-9.146 18.614,-18.614l30.106,0c-0.87,11.577 -5.466,22.107 -12.611,30.422m-92.866,-30.422l30.106,0c1.679,9.468 9.157,16.935 18.614,18.614l0,30.106c-11.571,-0.876 -22.107,-5.466 -30.417,-12.611l14.499,-14.505c1.566,-1.566 1.566,-4.109 0,-5.675c-1.571,-1.577 -4.115,-1.577 -5.687,0l-14.493,14.493c-7.151,-8.315 -11.74,-18.846 -12.622,-30.422m12.622,-38.46l14.493,14.499c0.786,0.786 1.814,1.176 2.843,1.176c1.029,0 2.052,-0.39 2.843,-1.176c1.566,-1.566 1.566,-4.115 0,-5.681l-14.499,-14.499c8.309,-7.145 18.846,-11.74 30.417,-12.617l0,30.106c-9.457,1.679 -16.935,9.146 -18.614,18.614l-30.106,0c0.882,-11.577 5.472,-22.107 12.622,-30.422m40.116,49.415c-8.253,0 -14.962,-6.721 -14.962,-14.974c0,-8.258 6.71,-14.968 14.962,-14.968c8.258,0 14.974,6.71 14.974,14.968c0,8.253 -6.715,14.974 -14.974,14.974m52.739,-18.993l-30.106,0c-1.679,-9.468 -9.146,-16.935 -18.614,-18.614l0,-30.106c11.577,0.876 22.113,5.472 30.428,12.617l-14.499,14.499c-1.571,1.566 -1.571,4.115 0,5.681c0.78,0.786 1.814,1.176 2.843,1.176c1.023,0 2.052,-0.39 2.843,-1.176l14.493,-14.499c7.151,8.315 11.74,18.846 12.611,30.422m-52.739,-56.961c-33.622,-0 -60.98,27.359 -60.98,60.98c0,33.622 27.359,60.98 60.98,60.98c33.633,0 60.98,-27.359 60.98,-60.98c0,-33.622 -27.347,-60.98 -60.98,-60.98" style="fill:#575756;fill-rule:nonzero;"/><path d="M783.096,105.321c-3.358,-2.142 -6.444,-4.618 -9.191,-7.405c7.671,-3.974 13.871,-10.175 17.845,-17.845c2.77,2.736 5.246,5.8 7.382,9.135c-4.126,6.467 -9.592,11.967 -16.036,16.116m-49.076,4.262c9.372,-6.981 16.455,-16.489 20.558,-27.24c4.098,10.751 11.192,20.259 20.553,27.24c-6.32,2.685 -13.267,4.16 -20.553,4.16c-7.286,0 -14.233,-1.475 -20.558,-4.16m-23.995,-20.378c2.137,-3.335 4.607,-6.399 7.377,-9.135c3.974,7.671 10.175,13.871 17.845,17.845c-2.747,2.787 -5.833,5.263 -9.191,7.405c-6.438,-4.149 -11.91,-9.649 -16.031,-16.116m-4.155,-48.833c6.97,9.265 16.421,16.291 27.104,20.361c-10.723,4.087 -20.197,11.141 -27.183,20.468c-2.611,-6.257 -4.07,-13.114 -4.07,-20.304c0,-7.275 1.481,-14.211 4.149,-20.525m20.434,-24.057c3.262,2.103 6.269,4.533 8.942,7.247c-7.648,3.985 -13.871,10.242 -17.84,17.857c-2.73,-2.691 -5.172,-5.715 -7.286,-8.999c4.16,-6.478 9.694,-11.972 16.183,-16.104m48.544,-4.217c-9.231,6.964 -16.212,16.393 -20.27,27.042c-4.064,-10.649 -11.045,-20.078 -20.276,-27.042c6.252,-2.606 13.097,-4.059 20.276,-4.059c7.184,0 14.03,1.453 20.27,4.059m24.182,20.321c-2.114,3.279 -4.545,6.303 -7.275,8.993c-3.974,-7.671 -10.18,-13.877 -17.851,-17.851c2.685,-2.713 5.681,-5.144 8.942,-7.247c6.495,4.132 12.023,9.626 16.183,16.104m-22.853,28.314c10.683,-4.07 20.135,-11.096 27.104,-20.361c2.674,6.314 4.149,13.25 4.149,20.525c0,7.19 -1.453,14.047 -4.07,20.304c-6.981,-9.327 -16.46,-16.381 -27.183,-20.468m-7.591,-30.829c7.399,3.392 13.442,9.423 16.822,16.828c-7.75,5.562 -16.941,9.016 -26.624,9.802c0.78,-9.689 4.234,-18.88 9.802,-26.629m-18.213,26.629c-9.689,-0.786 -18.885,-4.245 -26.641,-9.807c3.386,-7.428 9.366,-13.425 16.839,-16.822c5.562,7.75 9.016,16.941 9.802,26.629m-9.802,35.035c-7.405,-3.38 -13.442,-9.423 -16.828,-16.822c7.75,-5.568 16.935,-9.022 26.629,-9.802c-0.786,9.689 -4.239,18.88 -9.802,26.624m18.213,-26.624c9.689,0.78 18.88,4.234 26.624,9.802c-3.38,7.399 -9.423,13.442 -16.822,16.822c-5.568,-7.744 -9.022,-16.935 -9.802,-26.624m-4.206,-64.943c-33.576,0 -60.89,27.313 -60.89,60.895c0,33.571 27.313,60.884 60.89,60.884c33.576,0 60.89,-27.313 60.89,-60.884c0,-33.582 -27.313,-60.895 -60.89,-60.895" style="fill:#575756;fill-rule:nonzero;"/><path d="M387.862,113.926c-29.19,0 -52.942,-23.752 -52.942,-52.942c0,-29.19 23.752,-52.942 52.942,-52.942c29.19,-0 52.942,23.752 52.942,52.942c0,29.19 -23.752,52.942 -52.942,52.942m0,-113.922c-33.622,-0 -60.98,27.359 -60.98,60.98c0,33.622 27.359,60.98 60.98,60.98c33.622,0 60.98,-27.359 60.98,-60.98c0,-33.622 -27.359,-60.98 -60.98,-60.98" style="fill:#575756;fill-rule:nonzero;"/><path d="M427.733,56.965l-30.174,0l9.055,-9.05l15.42,0c2.221,0 4.019,-1.798 4.019,-4.025c0,-2.216 -1.798,-4.013 -4.019,-4.013l-7.382,0l4.528,-4.533c1.571,-1.571 1.571,-4.115 0,-5.681c-1.566,-1.566 -4.109,-1.566 -5.681,0l-4.528,4.533l0,-7.388c0,-2.227 -1.809,-4.019 -4.019,-4.019c-2.221,0 -4.025,1.792 -4.025,4.019l0,15.426l-9.05,9.05l0,-30.174c0,-2.216 -1.798,-4.019 -4.019,-4.019c-2.216,0 -4.019,1.803 -4.019,4.019l0,30.174l-9.05,-9.05l0,-15.426c0,-2.227 -1.803,-4.019 -4.019,-4.019c-2.221,0 -4.019,1.792 -4.019,4.019l0,7.388l-4.533,-4.533c-1.566,-1.566 -4.109,-1.566 -5.681,0c-1.571,1.566 -1.571,4.109 0,5.681l4.533,4.533l-7.388,0c-2.216,0 -4.019,1.798 -4.019,4.013c0,2.227 1.803,4.025 4.019,4.025l15.426,0l9.044,9.05l-30.162,0c-2.221,0 -4.019,1.798 -4.019,4.019c0,2.221 1.798,4.019 4.019,4.019l30.162,0l-9.044,9.05l-15.426,0c-2.216,0 -4.019,1.803 -4.019,4.019c0,2.221 1.803,4.019 4.019,4.019l7.388,0l-4.533,4.533c-1.571,1.566 -1.571,4.115 0,5.681c0.786,0.786 1.814,1.181 2.838,1.181c1.034,0 2.058,-0.396 2.843,-1.181l4.533,-4.533l0,7.388c0,2.221 1.798,4.019 4.019,4.019c2.216,0 4.019,-1.798 4.019,-4.019l0,-15.426l9.05,-9.044l0,30.168c0,2.216 1.803,4.019 4.019,4.019c2.221,0 4.019,-1.803 4.019,-4.019l0,-30.168l9.05,9.044l0,15.426c0,2.221 1.803,4.019 4.025,4.019c2.21,0 4.019,-1.798 4.019,-4.019l0,-7.388l4.528,4.533c0.786,0.786 1.814,1.181 2.838,1.181c1.034,0 2.063,-0.396 2.843,-1.181c1.571,-1.566 1.571,-4.115 0,-5.681l-4.528,-4.533l7.382,0c2.221,0 4.019,-1.798 4.019,-4.019c0,-2.216 -1.798,-4.019 -4.019,-4.019l-15.42,0l-9.055,-9.05l30.174,0c2.221,0 4.019,-1.798 4.019,-4.019c0,-2.221 -1.798,-4.019 -4.019,-4.019" style="fill:#575756;fill-rule:nonzero;"/><path d="M0,245.787c0,18.027 12.976,32.135 31.439,32.135c15.415,0 23.862,-9.754 23.862,-9.754l-4.616,-6.183c0,0 -7.402,8.012 -18.985,8.012c-13.673,0 -22.817,-11.147 -22.817,-24.298c0,-13.063 8.97,-23.514 22.73,-23.514c10.625,0 17.766,6.706 17.766,6.706l4.267,-6.445c0,0 -7.577,-8.099 -22.382,-8.099c-17.853,0 -31.265,13.586 -31.265,31.439Z" style="fill:#575756;fill-rule:nonzero;"/><path d="M62.094,254.757c0,13.412 10.625,23.165 23.775,23.165c13.15,0 23.775,-9.754 23.775,-23.165c0,-13.324 -10.625,-22.991 -23.775,-22.991c-13.15,0 -23.775,9.667 -23.775,22.991Zm8.622,0c0,-9.144 6.88,-15.676 15.153,-15.676c8.36,0 15.153,6.532 15.153,15.676c0,9.231 -6.793,15.85 -15.153,15.85c-8.273,0 -15.153,-6.619 -15.153,-15.85Z" style="fill:#575756;fill-rule:nonzero;"/><path d="M119.659,276.877l8.448,0l0,-20.117c0,-2.003 0.087,-4.006 0.523,-5.748c1.655,-6.27 6.183,-11.583 12.628,-11.583c6.793,0 7.664,5.312 7.664,11.06l0,26.388l8.448,0l0,-20.117c0,-2.264 0.174,-4.267 0.61,-6.096c1.568,-6.009 6.183,-11.234 12.367,-11.234c6.619,0 7.838,4.877 7.838,11.06l0,26.388l8.448,0l0,-28.217c0,-11.234 -4.616,-16.895 -14.544,-16.895c-7.141,0 -13.237,4.703 -15.676,10.015l-0.174,0c-1.48,-6.619 -5.835,-10.015 -13.237,-10.015c-6.88,0 -13.063,4.964 -15.153,10.102l-0.174,0c0,0 0.174,-1.48 0.174,-3.222l0,-5.835l-8.186,0l0,44.067Z" style="fill:#575756;fill-rule:nonzero;"/><path d="M199.17,224.015l8.535,0l0,-8.622l-8.535,0l0,8.622Zm0.087,52.862l8.448,0l0,-44.067l-8.448,0l0,44.067Z" style="fill:#575756;fill-rule:nonzero;"/><path d="M222.771,260.766c0,14.718 11.234,16.46 16.895,16.46c1.742,0 2.961,-0.174 2.961,-0.174l0,-7.49c0,0 -0.784,0.174 -2.003,0.174c-3.222,0 -9.406,-1.132 -9.406,-9.928l0,-19.595l10.625,0l0,-6.793l-10.625,0l0,-12.715l-8.186,0l0,12.715l-6.009,0l0,6.793l5.748,0l0,20.553Z" style="fill:#575756;fill-rule:nonzero;"/><path d="M249.072,254.844c0,13.063 9.493,23.078 23.34,23.078c10.538,0 17.069,-6.27 17.069,-6.27l-3.484,-6.183c0,0 -5.487,5.138 -13.063,5.138c-7.838,0 -14.718,-4.877 -15.153,-14.544l32.135,0c0,0 0.261,-2.526 0.261,-3.658c0,-11.409 -6.619,-20.64 -19.072,-20.64c-12.541,0 -22.033,9.057 -22.033,23.078Zm8.97,-5.138c1.219,-7.228 6.445,-11.234 12.889,-11.234c5.661,0 10.363,3.658 10.625,11.234l-23.514,0Zm9.318,-23.253l7.054,0l8.36,-11.06l-9.057,0l-6.357,11.06Z" style="fill:#575756;fill-rule:nonzero;"/><path d="M320.397,245.787c0,18.027 12.976,32.135 31.439,32.135c15.415,0 23.862,-9.754 23.862,-9.754l-4.616,-6.183c0,0 -7.402,8.012 -18.985,8.012c-13.673,0 -22.817,-11.147 -22.817,-24.298c0,-13.063 8.97,-23.514 22.73,-23.514c10.625,0 17.766,6.706 17.766,6.706l4.267,-6.445c0,0 -7.577,-8.099 -22.382,-8.099c-17.853,0 -31.265,13.586 -31.265,31.439Z" style="fill:#575756;fill-rule:nonzero;"/><path d="M385.626,224.015l8.535,0l0,-8.622l-8.535,0l0,8.622Zm0.087,52.862l8.448,0l0,-44.067l-8.448,0l0,44.067Z" style="fill:#575756;fill-rule:nonzero;"/><path d="M404.35,254.844c0,13.063 9.493,23.078 23.34,23.078c10.538,0 17.069,-6.27 17.069,-6.27l-3.484,-6.183c0,0 -5.487,5.138 -13.063,5.138c-7.838,0 -14.718,-4.877 -15.153,-14.544l32.135,0c0,0 0.261,-2.526 0.261,-3.658c0,-11.409 -6.619,-20.64 -19.072,-20.64c-12.541,0 -22.033,9.057 -22.033,23.078Zm8.97,-5.138c1.219,-7.228 6.445,-11.234 12.889,-11.234c5.661,0 10.363,3.658 10.625,11.234l-23.514,0Z" style="fill:#575756;fill-rule:nonzero;"/><path d="M455.732,276.877l8.448,0l0,-20.64c0,-2.177 0.174,-4.18 0.697,-5.922c1.829,-6.357 7.228,-10.799 13.934,-10.799c7.054,0 8.36,4.877 8.36,11.06l0,26.301l8.448,0l0,-28.217c0,-11.234 -4.79,-16.895 -15.153,-16.895c-9.58,0 -14.805,6.27 -16.547,10.102l-0.174,0c0,0 0.174,-1.48 0.174,-3.222l0,-5.835l-8.186,0l0,44.067Z" style="fill:#575756;fill-rule:nonzero;"/><path d="M510.075,260.766c0,14.718 11.234,16.46 16.895,16.46c1.742,0 2.961,-0.174 2.961,-0.174l0,-7.49c0,0 -0.784,0.174 -2.003,0.174c-3.222,0 -9.406,-1.132 -9.406,-9.928l0,-19.595l10.625,0l0,-6.793l-10.625,0l0,-12.715l-8.186,0l0,12.715l-6.009,0l0,6.793l5.748,0l0,20.553Z" style="fill:#575756;fill-rule:nonzero;"/><path d="M539.946,226.453l7.054,0l8.36,-11.06l-9.057,0l-6.357,11.06Zm-0.523,50.424l8.448,0l0,-44.067l-8.448,0l0,44.067Z" style="fill:#575756;fill-rule:nonzero;"/><path d="M590.37,276.877l8.448,0l0,-44.067l-26.997,0l0,-1.306c0,-8.186 6.009,-9.231 9.231,-9.231c1.306,0 2.177,0.174 2.177,0.174l0,-7.228c0,0 -1.306,-0.261 -3.222,-0.261c-5.574,0 -16.547,1.829 -16.547,16.373l0,1.48l-5.487,0l0,6.793l5.487,0l0,37.274l8.36,0l0,-37.274l18.55,0l0,37.274Zm-0.087,-52.862l8.535,0l0,-8.622l-8.535,0l0,8.622Z" style="fill:#575756;fill-rule:nonzero;"/><path d="M608.92,254.844c0,13.237 9.754,23.078 23.601,23.078c11.496,0 17.592,-7.054 17.592,-7.054l-3.396,-6.183c0,0 -5.399,5.922 -13.586,5.922c-9.144,0 -15.589,-6.88 -15.589,-15.85c0,-9.057 6.445,-15.676 15.327,-15.676c7.49,0 12.192,5.051 12.192,5.051l4.006,-5.922c0,0 -5.487,-6.445 -16.547,-6.445c-13.847,0 -23.601,10.015 -23.601,23.078Z" style="fill:#575756;fill-rule:nonzero;"/><path d="M656.47,254.757c0,13.412 10.625,23.165 23.775,23.165c13.15,0 23.775,-9.754 23.775,-23.165c0,-13.324 -10.625,-22.991 -23.775,-22.991c-13.15,0 -23.775,9.667 -23.775,22.991Zm8.622,0c0,-9.144 6.88,-15.676 15.153,-15.676c8.36,0 15.153,6.532 15.153,15.676c0,9.231 -6.793,15.85 -15.153,15.85c-8.273,0 -15.153,-6.619 -15.153,-15.85Z" style="fill:#575756;fill-rule:nonzero;"/><path d="M774.822,276.877l8.97,0l-22.12,-61.484l-9.057,0l-22.12,61.484l8.883,0l6.096,-17.679l23.165,0l6.183,17.679Zm-17.592,-53.037c0,0 1.306,5.574 2.351,8.709l6.793,19.508l-18.637,0l6.88,-19.508c1.045,-3.135 2.438,-8.709 2.438,-8.709l0.174,0Z" style="fill:#575756;fill-rule:nonzero;"/><path d="M787.537,271.478c0,0 5.922,6.445 16.721,6.445c9.667,0 15.937,-5.487 15.937,-12.802c0,-14.457 -22.643,-12.715 -22.643,-20.64c0,-3.832 3.571,-5.399 7.228,-5.399c6.967,0 10.886,3.919 10.886,3.919l3.396,-6.357c0,0 -4.529,-4.877 -14.195,-4.877c-8.796,0 -15.937,4.529 -15.937,12.541c0,14.37 22.643,12.715 22.643,20.814c0,3.571 -3.658,5.487 -7.315,5.487c-7.664,0 -12.628,-5.138 -12.628,-5.138l-4.093,6.009Z" style="fill:#575756;fill-rule:nonzero;"/><path d="M827.075,254.844c0,13.063 9.493,23.078 23.34,23.078c10.538,0 17.069,-6.27 17.069,-6.27l-3.484,-6.183c0,0 -5.487,5.138 -13.063,5.138c-7.838,0 -14.718,-4.877 -15.153,-14.544l32.135,0c0,0 0.261,-2.526 0.261,-3.658c0,-11.409 -6.619,-20.64 -19.072,-20.64c-12.541,0 -22.033,9.057 -22.033,23.078Zm8.97,-5.138c1.219,-7.228 6.445,-11.234 12.889,-11.234c5.661,0 10.363,3.658 10.625,11.234l-23.514,0Z" style="fill:#575756;fill-rule:nonzero;"/><path d="M874.886,271.478c0,0 5.922,6.445 16.721,6.445c9.667,0 15.937,-5.487 15.937,-12.802c0,-14.457 -22.643,-12.715 -22.643,-20.64c0,-3.832 3.571,-5.399 7.228,-5.399c6.967,0 10.886,3.919 10.886,3.919l3.396,-6.357c0,0 -4.529,-4.877 -14.195,-4.877c-8.796,0 -15.937,4.529 -15.937,12.541c0,14.37 22.643,12.715 22.643,20.814c0,3.571 -3.658,5.487 -7.315,5.487c-7.664,0 -12.628,-5.138 -12.628,-5.138l-4.093,6.009Z" style="fill:#575756;fill-rule:nonzero;"/><path d="M914.25,254.757c0,13.412 10.625,23.165 23.775,23.165c13.15,0 23.775,-9.754 23.775,-23.165c0,-13.324 -10.625,-22.991 -23.775,-22.991c-13.15,0 -23.775,9.667 -23.775,22.991Zm8.622,0c0,-9.144 6.88,-15.676 15.153,-15.676c8.36,0 15.153,6.532 15.153,15.676c0,9.231 -6.793,15.85 -15.153,15.85c-8.273,0 -15.153,-6.619 -15.153,-15.85Z" style="fill:#575756;fill-rule:nonzero;"/><path d="M971.815,276.877l8.448,0l0,-18.027c0,-2.7 0.261,-5.399 1.045,-7.925c2.003,-6.532 6.967,-10.363 12.367,-10.363c1.306,0 2.438,0.261 2.438,0.261l0,-8.36c0,0 -1.045,-0.174 -2.177,-0.174c-6.793,0 -11.931,5.051 -13.934,11.496l-0.174,0c0,0 0.174,-1.48 0.174,-3.309l0,-7.664l-8.186,0l0,44.067Z" style="fill:#575756;fill-rule:nonzero;"/><path d="M1023.981,254.844c0,13.673 7.49,23.078 19.421,23.078c10.886,0 14.457,-8.186 14.457,-8.186l0.174,0c0,0 -0.087,1.219 -0.087,2.961l0,4.18l8.012,0l0,-61.484l-8.448,0l0,20.379c0,1.655 0.174,2.961 0.174,2.961l-0.174,0c0,0 -3.396,-6.967 -13.586,-6.967c-11.67,0 -19.943,9.057 -19.943,23.078Zm8.622,0c0,-10.015 5.748,-15.763 12.715,-15.763c8.36,0 12.454,7.838 12.454,15.676c0,11.234 -6.183,15.85 -12.715,15.85c-7.315,0 -12.454,-6.183 -12.454,-15.763Z" style="fill:#575756;fill-rule:nonzero;"/><path d="M1076.147,254.844c0,13.063 9.493,23.078 23.34,23.078c10.538,0 17.069,-6.27 17.069,-6.27l-3.484,-6.183c0,0 -5.487,5.138 -13.063,5.138c-7.838,0 -14.718,-4.877 -15.153,-14.544l32.135,0c0,0 0.261,-2.526 0.261,-3.658c0,-11.409 -6.619,-20.64 -19.072,-20.64c-12.541,0 -22.033,9.057 -22.033,23.078Zm8.97,-5.138c1.219,-7.228 6.445,-11.234 12.889,-11.234c5.661,0 10.363,3.658 10.625,11.234l-23.514,0Z" style="fill:#575756;fill-rule:nonzero;"/><path d="M1147.472,245.787c0,18.027 12.976,32.135 31.439,32.135c15.415,0 23.862,-9.754 23.862,-9.754l-4.616,-6.183c0,0 -7.402,8.012 -18.985,8.012c-13.673,0 -22.817,-11.147 -22.817,-24.298c0,-13.063 8.97,-23.514 22.73,-23.514c10.625,0 17.766,6.706 17.766,6.706l4.267,-6.445c0,0 -7.577,-8.099 -22.382,-8.099c-17.853,0 -31.265,13.586 -31.265,31.439Z" style="fill:#575756;fill-rule:nonzero;"/><path d="M1209.217,264.511c0,8.796 7.402,13.412 14.979,13.412c10.538,0 14.108,-8.709 14.108,-8.709l0.174,0c0,0 -0.174,1.48 -0.174,3.484l0,4.18l7.838,0l0,-27.868c0,-11.147 -6.27,-17.243 -17.418,-17.243c-10.102,0 -16.46,5.225 -16.46,5.225l3.484,6.183c0,0 5.487,-4.267 12.279,-4.267c5.574,0 9.667,2.438 9.667,9.667l0,0.784l-1.916,0c-7.402,0 -26.562,0.61 -26.562,15.153Zm8.535,-0.435c0,-7.925 11.496,-8.36 17.853,-8.36l2.177,0l0,1.393c0,6.532 -4.616,14.021 -11.757,14.021c-5.487,0 -8.273,-3.484 -8.273,-7.054Z" style="fill:#575756;fill-rule:nonzero;"/><path d="M1258.77,276.877l8.448,0l0,-20.117c0,-2.003 0.087,-4.006 0.523,-5.748c1.655,-6.27 6.183,-11.583 12.628,-11.583c6.793,0 7.664,5.312 7.664,11.06l0,26.388l8.448,0l0,-20.117c0,-2.264 0.174,-4.267 0.61,-6.096c1.568,-6.009 6.183,-11.234 12.367,-11.234c6.619,0 7.838,4.877 7.838,11.06l0,26.388l8.448,0l0,-28.217c0,-11.234 -4.616,-16.895 -14.544,-16.895c-7.141,0 -13.237,4.703 -15.676,10.015l-0.174,0c-1.48,-6.619 -5.835,-10.015 -13.237,-10.015c-6.88,0 -13.063,4.964 -15.153,10.102l-0.174,0c0,0 0.174,-1.48 0.174,-3.222l0,-5.835l-8.186,0l0,44.067Z" style="fill:#575756;fill-rule:nonzero;"/><path d="M1338.369,276.877l8.012,0l0,-3.222c0,-1.916 -0.174,-3.309 -0.174,-3.309l0.174,0c0,0 4.006,7.577 13.847,7.577c11.583,0 20.03,-9.057 20.03,-23.078c0,-13.673 -7.49,-23.078 -19.334,-23.078c-10.363,0 -14.108,7.49 -14.108,7.49l-0.174,0c0,0 0.174,-1.568 0.174,-3.745l0,-20.117l-8.448,0l0,61.484Zm8.186,-21.859c0,-11.234 6.096,-15.85 12.715,-15.85c7.315,0 12.454,6.183 12.454,15.763c0,10.015 -5.748,15.763 -12.715,15.763c-8.36,0 -12.454,-7.838 -12.454,-15.676Z" style="fill:#575756;fill-rule:nonzero;"/><path d="M1390.535,224.015l8.535,0l0,-8.622l-8.535,0l0,8.622Zm0.087,52.862l8.448,0l0,-44.067l-8.448,0l0,44.067Z" style="fill:#575756;fill-rule:nonzero;"/><path d="M1409.084,254.757c0,13.412 10.625,23.165 23.775,23.165c13.15,0 23.775,-9.754 23.775,-23.165c0,-13.324 -10.625,-22.991 -23.775,-22.991c-13.15,0 -23.775,9.667 -23.775,22.991Zm8.622,0c0,-9.144 6.88,-15.676 15.153,-15.676c8.36,0 15.153,6.532 15.153,15.676c0,9.231 -6.793,15.85 -15.153,15.85c-8.273,0 -15.153,-6.619 -15.153,-15.85Z" style="fill:#575756;fill-rule:nonzero;"/><path d="M1486.593,245.787c0,18.027 12.976,32.135 31.439,32.135c15.415,0 23.862,-9.754 23.862,-9.754l-4.616,-6.183c0,0 -7.402,8.012 -18.985,8.012c-13.673,0 -22.817,-11.147 -22.817,-24.298c0,-13.063 8.97,-23.514 22.73,-23.514c10.625,0 17.766,6.706 17.766,6.706l4.267,-6.445c0,0 -7.577,-8.099 -22.382,-8.099c-17.853,0 -31.265,13.586 -31.265,31.439Z" style="fill:#575756;fill-rule:nonzero;"/><path d="M1551.386,264.859c0,11.06 7.054,12.367 11.844,12.367c1.48,0 2.787,-0.174 2.787,-0.174l0,-7.49c0,0 -0.697,0.087 -1.48,0.087c-2.613,0 -4.703,-0.958 -4.703,-6.27l0,-47.986l-8.448,0l0,49.466Z" style="fill:#575756;fill-rule:nonzero;"/><path d="M1574.9,224.015l8.535,0l0,-8.622l-8.535,0l0,8.622Zm0.087,52.862l8.448,0l0,-44.067l-8.448,0l0,44.067Z" style="fill:#575756;fill-rule:nonzero;"/><path d="M1596.672,276.877l8.448,0l0,-20.117c0,-2.003 0.087,-4.006 0.523,-5.748c1.655,-6.27 6.183,-11.583 12.628,-11.583c6.793,0 7.664,5.312 7.664,11.06l0,26.388l8.448,0l0,-20.117c0,-2.264 0.174,-4.267 0.61,-6.096c1.568,-6.009 6.183,-11.234 12.367,-11.234c6.619,0 7.838,4.877 7.838,11.06l0,26.388l8.448,0l0,-28.217c0,-11.234 -4.616,-16.895 -14.544,-16.895c-7.141,0 -13.237,4.703 -15.676,10.015l-0.174,0c-1.48,-6.619 -5.835,-10.015 -13.237,-10.015c-6.88,0 -13.063,4.964 -15.153,10.102l-0.174,0c0,0 0.174,-1.48 0.174,-3.222l0,-5.835l-8.186,0l0,44.067Z" style="fill:#575756;fill-rule:nonzero;"/><path d="M1672.7,264.511c0,8.796 7.402,13.412 14.979,13.412c10.538,0 14.108,-8.709 14.108,-8.709l0.174,0c0,0 -0.174,1.48 -0.174,3.484l0,4.18l7.838,0l0,-27.868c0,-11.147 -6.27,-17.243 -17.418,-17.243c-10.102,0 -16.46,5.225 -16.46,5.225l3.484,6.183c0,0 5.487,-4.267 12.279,-4.267c5.574,0 9.667,2.438 9.667,9.667l0,0.784l-1.916,0c-7.402,0 -26.562,0.61 -26.562,15.153Zm8.535,-0.435c0,-7.925 11.496,-8.36 17.853,-8.36l2.177,0l0,1.393c0,6.532 -4.616,14.021 -11.757,14.021c-5.487,0 -8.273,-3.484 -8.273,-7.054Zm7.402,-37.622l7.054,0l8.36,-11.06l-9.057,0l-6.357,11.06Z" style="fill:#575756;fill-rule:nonzero;"/><path d="M1723.82,260.766c0,14.718 11.234,16.46 16.895,16.46c1.742,0 2.961,-0.174 2.961,-0.174l0,-7.49c0,0 -0.784,0.174 -2.003,0.174c-3.222,0 -9.406,-1.132 -9.406,-9.928l0,-19.595l10.625,0l0,-6.793l-10.625,0l0,-12.715l-8.186,0l0,12.715l-6.009,0l0,6.793l5.748,0l0,20.553Z" style="fill:#575756;fill-rule:nonzero;"/><path d="M1753.082,224.015l8.535,0l0,-8.622l-8.535,0l0,8.622Zm0.087,52.862l8.448,0l0,-44.067l-8.448,0l0,44.067Z" style="fill:#575756;fill-rule:nonzero;"/><path d="M1771.719,254.844c0,13.237 9.754,23.078 23.601,23.078c11.496,0 17.592,-7.054 17.592,-7.054l-3.396,-6.183c0,0 -5.399,5.922 -13.586,5.922c-9.144,0 -15.589,-6.88 -15.589,-15.85c0,-9.057 6.445,-15.676 15.327,-15.676c7.49,0 12.192,5.051 12.192,5.051l4.006,-5.922c0,0 -5.487,-6.445 -16.547,-6.445c-13.847,0 -23.601,10.015 -23.601,23.078Z" style="fill:#575756;fill-rule:nonzero;"/><path d="M1819.269,254.757c0,13.412 10.625,23.165 23.775,23.165c13.15,0 23.775,-9.754 23.775,-23.165c0,-13.324 -10.625,-22.991 -23.775,-22.991c-13.15,0 -23.775,9.667 -23.775,22.991Zm8.622,0c0,-9.144 6.88,-15.676 15.153,-15.676c8.36,0 15.153,6.532 15.153,15.676c0,9.231 -6.793,15.85 -15.153,15.85c-8.273,0 -15.153,-6.619 -15.153,-15.85Z" style="fill:#575756;fill-rule:nonzero;"/></g></svg>